<svg viewBox="0 0 118 31" fill="currentColor" xmlns="http://www.w3.org/2000/svg">
<path d="M37.4717 23.835C36.9385 23.8486 36.501 23.7529 36.1592 23.5479C35.8037 23.3428 35.5303 23.042 35.3389 22.6455C35.1338 22.2627 35.0039 21.791 34.9492 21.2305C34.8945 20.6836 34.8945 20.082 34.9492 19.4258C35.0176 18.9199 35.1406 18.3936 35.3184 17.8467C35.4688 17.3818 35.7012 16.8691 36.0156 16.3086C36.3164 15.748 36.7266 15.2012 37.2461 14.668C37.3555 14.6953 37.4443 14.7295 37.5127 14.7705C37.5811 14.7979 37.6357 14.832 37.6768 14.873C37.7178 14.9277 37.7451 14.9756 37.7588 15.0166C37.7861 15.167 37.7451 15.3379 37.6357 15.5293C37.5264 15.7207 37.417 15.9258 37.3076 16.1445C37.0068 16.7734 36.7812 17.3682 36.6309 17.9287C36.4805 18.4893 36.3848 19.0088 36.3438 19.4873C36.3164 19.8975 36.3232 20.2666 36.3643 20.5947C36.3916 20.9365 36.4395 21.2236 36.5078 21.4561C36.5762 21.7021 36.6514 21.8867 36.7334 22.0098C36.8154 22.1465 36.8906 22.2148 36.959 22.2148C37.0273 22.2148 37.0957 22.167 37.1641 22.0713C37.2461 21.9756 37.3213 21.8594 37.3896 21.7227C37.4717 21.5859 37.5674 21.374 37.6768 21.0869C37.7861 20.8135 37.9023 20.4922 38.0254 20.123C38.1484 19.7539 38.2646 19.3574 38.374 18.9336C38.4971 18.4961 38.6064 18.0586 38.7021 17.6211C38.8936 16.7461 39.0986 15.7617 39.3174 14.668C39.5361 13.5605 39.8574 12.4053 40.2812 11.2021C40.418 10.6963 40.5889 10.1426 40.7939 9.54102C40.958 9.02148 41.1631 8.41992 41.4092 7.73633C41.6689 7.03906 41.9629 6.28711 42.291 5.48047C42.291 5.41211 42.3457 5.35059 42.4551 5.2959C42.5781 5.22754 42.7148 5.15918 42.8652 5.09082C43.0293 5.02246 43.2139 4.9541 43.4189 4.88574C43.6924 4.79004 43.9043 4.73535 44.0547 4.72168C44.2188 4.70801 44.3418 4.72852 44.4238 4.7832C44.5059 4.83789 44.5605 4.91309 44.5879 5.00879C44.6152 5.09082 44.6289 5.18652 44.6289 5.2959C44.6562 5.74707 44.6699 6.1709 44.6699 6.56738C44.6836 6.96387 44.6973 7.3125 44.7109 7.61328C44.7246 7.96875 44.7314 8.29004 44.7314 8.57715C44.7451 8.95996 44.7246 9.47266 44.6699 10.1152C44.6152 10.7441 44.5537 11.4072 44.4854 12.1045C44.4307 12.8018 44.376 13.4854 44.3213 14.1553C44.2803 14.8115 44.2734 15.3584 44.3008 15.7959C44.3008 16.0283 44.3076 16.2471 44.3213 16.4521C44.3486 16.6436 44.376 16.835 44.4033 17.0264C44.5811 16.5342 44.7793 16.0215 44.998 15.4883C45.2168 14.9414 45.4355 14.4219 45.6543 13.9297C45.873 13.4238 46.0781 12.959 46.2695 12.5352C46.4609 12.0977 46.6113 11.7354 46.7207 11.4482C46.8848 11.0654 47.1035 10.5801 47.377 9.99219C47.6504 9.4043 47.9238 8.81641 48.1973 8.22852C48.4844 7.64063 48.7441 7.10059 48.9766 6.6084C49.2227 6.11621 49.4004 5.77441 49.5098 5.58301C49.5918 5.44629 49.7285 5.32324 49.9199 5.21387C50.125 5.10449 50.3369 5.00879 50.5557 4.92676C50.7881 4.84473 51 4.79004 51.1914 4.7627C51.3965 4.72168 51.5332 4.71484 51.6016 4.74219C51.7793 4.7832 51.9023 4.83789 51.9707 4.90625C52.0527 4.97461 52.1006 5.02246 52.1143 5.0498C52.1416 5.10449 52.1621 5.2002 52.1758 5.33691C52.1895 5.45996 52.1826 5.6582 52.1553 5.93164C52.1279 6.25977 52.0459 6.75879 51.9092 7.42871C51.7861 8.09863 51.6289 8.86426 51.4375 9.72559C51.2598 10.5732 51.0615 11.4824 50.8428 12.4531C50.6377 13.4238 50.4395 14.3809 50.248 15.3242C50.0566 16.2539 49.8857 17.1289 49.7354 17.9492C49.5986 18.7695 49.5098 19.46 49.4688 20.0205C49.4414 20.6494 49.4824 21.2031 49.5918 21.6816C49.6328 21.8867 49.6943 22.085 49.7764 22.2764C49.8584 22.4678 49.9678 22.6318 50.1045 22.7686C50.2412 22.9189 50.4053 23.0283 50.5967 23.0967C50.7881 23.165 51.0137 23.1855 51.2734 23.1582C50.9316 23.3906 50.5967 23.5615 50.2686 23.6709C49.9404 23.7803 49.6191 23.835 49.3047 23.835C48.9629 23.8486 48.6621 23.7939 48.4023 23.6709C48.1426 23.5615 47.9238 23.3975 47.7461 23.1787C47.5684 22.9736 47.4385 22.7207 47.3564 22.4199C47.2744 22.1328 47.2471 21.8115 47.2744 21.4561C47.3018 21.1279 47.3906 20.5879 47.541 19.8359C47.6914 19.084 47.8691 18.2363 48.0742 17.293C48.293 16.3359 48.5254 15.3447 48.7715 14.3193C49.0312 13.2803 49.2705 12.3096 49.4893 11.4072C49.7217 10.4912 49.9199 9.70508 50.084 9.04883C50.248 8.39258 50.3506 7.96191 50.3916 7.75684C50.4189 7.59277 50.4395 7.44238 50.4531 7.30566C50.4805 7.15527 50.5078 7.02539 50.5352 6.91602C50.3984 7.18945 50.2275 7.51758 50.0225 7.90039C49.8311 8.2832 49.626 8.69336 49.4072 9.13086C49.1885 9.56836 48.9629 10.0264 48.7305 10.5049C48.5117 10.9697 48.2998 11.4209 48.0947 11.8584C47.7529 12.5693 47.418 13.3008 47.0898 14.0527C46.7617 14.791 46.4678 15.4951 46.208 16.165C45.9482 16.835 45.7295 17.4365 45.5518 17.9697C45.3877 18.5029 45.292 18.9131 45.2646 19.2002V19.4873C45.2646 19.5693 45.2646 19.665 45.2646 19.7744C45.2783 19.8838 45.2988 19.9863 45.3262 20.082L44.5059 20.7178C44.3828 20.7588 44.2734 20.793 44.1777 20.8203C44.0957 20.8477 44.0137 20.8613 43.9316 20.8613C43.6172 20.8613 43.3779 20.6973 43.2139 20.3691C43.0498 20.0684 42.8994 19.4805 42.7627 18.6055C42.626 17.7305 42.585 16.6572 42.6396 15.3857C42.667 14.7568 42.708 14.1211 42.7627 13.4785C42.8311 12.8359 42.8926 12.2207 42.9473 11.6328C43.0156 11.0449 43.0771 10.498 43.1318 9.99219C43.1865 9.47266 43.2139 9.02832 43.2139 8.65918C43.2275 8.38574 43.2207 8.13965 43.1934 7.9209C43.166 7.68848 43.1387 7.47656 43.1113 7.28516C42.9883 7.59961 42.8516 8.03027 42.7012 8.57715C42.5508 9.11035 42.3936 9.70508 42.2295 10.3613C42.0654 11.0176 41.8945 11.708 41.7168 12.4326C41.5527 13.1572 41.3887 13.8545 41.2246 14.5244C41.0742 15.1943 40.9307 15.8164 40.7939 16.3906C40.6572 16.9512 40.5479 17.4023 40.4658 17.7441C40.3291 18.291 40.1924 18.9131 40.0557 19.6104C39.9189 20.3076 39.748 20.9639 39.543 21.5791C39.3379 22.208 39.0713 22.7344 38.7432 23.1582C38.415 23.5957 37.9912 23.8213 37.4717 23.835ZM56.4931 7.9209C56.4521 8.07129 56.37 8.22168 56.247 8.37207C56.1376 8.50879 56.0077 8.625 55.8573 8.7207C55.7206 8.80273 55.5771 8.85742 55.4267 8.88477C55.2763 8.91211 55.1532 8.88477 55.0575 8.80273C54.7704 8.58398 54.62 8.35156 54.6064 8.10547C54.5927 7.8457 54.6542 7.60645 54.7909 7.3877C54.9277 7.15527 55.0986 6.96387 55.3036 6.81348C55.5087 6.64941 55.6864 6.55371 55.8368 6.52637C55.9872 6.49902 56.1103 6.5332 56.206 6.62891C56.3154 6.71094 56.3974 6.82715 56.4521 6.97754C56.5068 7.11426 56.5341 7.27148 56.5341 7.44922C56.5478 7.62695 56.5341 7.78418 56.4931 7.9209ZM53.663 12.2891C53.7314 12.207 53.8612 12.1387 54.0527 12.084C54.2441 12.0293 54.4423 11.9883 54.6474 11.9609C54.8525 11.9199 55.037 11.8994 55.2011 11.8994C55.3788 11.8857 55.4814 11.8857 55.5087 11.8994C55.5224 11.9131 55.4882 12.0566 55.4062 12.3301C55.3241 12.6035 55.2216 12.9248 55.0986 13.2939C54.9755 13.6631 54.8456 14.0459 54.7089 14.4424C54.5722 14.8252 54.4696 15.1396 54.4013 15.3857C54.3329 15.6318 54.2509 15.9121 54.1552 16.2266C54.0595 16.5273 53.9706 16.8281 53.8886 17.1289C53.8202 17.416 53.7724 17.6895 53.745 17.9492C53.7177 18.209 53.7382 18.4072 53.8066 18.5439C53.8749 18.708 53.9501 18.8242 54.0321 18.8926C54.1142 18.9473 54.203 18.9746 54.2987 18.9746C54.5722 18.9746 54.914 18.8242 55.3241 18.5234C55.748 18.2227 56.1718 17.8672 56.5956 17.457C57.0331 17.0332 57.4364 16.6094 57.8056 16.1855C58.1747 15.748 58.4482 15.3994 58.6259 15.1396C58.7353 15.0029 58.8446 14.9141 58.954 14.873C59.0771 14.832 59.1728 14.8389 59.2411 14.8936C59.3232 14.9482 59.3642 15.0371 59.3642 15.1602C59.3779 15.2832 59.3368 15.4268 59.2411 15.5908C59.0224 15.9736 58.7011 16.4316 58.2773 16.9648C57.8534 17.4844 57.4023 17.9902 56.9237 18.4824C56.4452 18.9609 55.9736 19.3711 55.5087 19.7129C55.0575 20.0547 54.6884 20.2324 54.4013 20.2461C54.1689 20.2598 53.9364 20.2188 53.704 20.123C53.4853 20.041 53.2802 19.9248 53.0888 19.7744C52.9111 19.6104 52.7607 19.4258 52.6376 19.2207C52.5146 19.002 52.4462 18.7764 52.4325 18.5439C52.3915 18.2021 52.3915 17.7373 52.4325 17.1494C52.4736 16.5479 52.5487 15.9395 52.6581 15.3242C52.7675 14.6953 52.9042 14.1006 53.0683 13.54C53.246 12.9795 53.4443 12.5625 53.663 12.2891ZM63.4149 20.5127C63.1004 20.5127 62.827 20.4512 62.5946 20.3281C62.3758 20.2188 62.1981 20.0684 62.0614 19.877C61.9246 19.6855 61.8358 19.4668 61.7948 19.2207C61.7537 18.9609 61.7674 18.6875 61.8358 18.4004C61.8768 18.209 61.9452 17.9561 62.0409 17.6416C62.1366 17.3135 62.2323 16.9648 62.328 16.5957C62.4373 16.2129 62.533 15.8369 62.6151 15.4678C62.7108 15.085 62.7723 14.7432 62.7996 14.4424C62.827 14.1279 62.8133 13.875 62.7586 13.6836C62.7039 13.4785 62.5877 13.376 62.41 13.376C62.1912 13.376 61.9657 13.4512 61.7332 13.6016C61.5008 13.7383 61.2616 13.9297 61.0155 14.1758C60.783 14.4219 60.5438 14.709 60.2977 15.0371C60.0653 15.3516 59.8329 15.6797 59.6004 16.0215C59.4774 16.4863 59.3748 16.8965 59.2928 17.252C59.2108 17.5938 59.1356 17.9082 59.0672 18.1953C59.0125 18.4688 58.9579 18.7148 58.9032 18.9336C58.8485 19.1387 58.8006 19.3369 58.7596 19.5283C58.7186 19.665 58.5955 19.8018 58.3905 19.9385C58.1854 20.0615 57.9666 20.1641 57.7342 20.2461C57.5018 20.3281 57.3036 20.3691 57.1395 20.3691C56.9618 20.3691 56.8866 20.3076 56.9139 20.1846C56.9276 20.1025 56.9754 19.918 57.0575 19.6309C57.1258 19.3438 57.2147 19.0088 57.3241 18.626C57.4198 18.2295 57.5223 17.8125 57.6317 17.375C57.7411 16.9375 57.8436 16.5205 57.9393 16.124C58.0077 15.8096 58.0829 15.4609 58.1649 15.0781C58.2332 14.75 58.3153 14.3672 58.411 13.9297C58.5204 13.4922 58.6434 13.0137 58.7801 12.4941C58.8758 12.4121 58.9715 12.3506 59.0672 12.3096C59.1766 12.2549 59.286 12.2139 59.3954 12.1865C59.5047 12.1455 59.6209 12.1182 59.744 12.1045C59.8534 12.1045 59.9627 12.1113 60.0721 12.125C60.1678 12.1387 60.2635 12.166 60.3592 12.207C60.4686 12.2344 60.5643 12.2822 60.6463 12.3506C60.6053 12.4463 60.5575 12.583 60.5028 12.7607C60.4481 12.9248 60.3934 13.1025 60.3387 13.2939C60.284 13.5127 60.2157 13.7383 60.1336 13.9707C60.3114 13.7246 60.5096 13.4785 60.7284 13.2324C60.9608 12.9727 61.2069 12.7402 61.4666 12.5352C61.7401 12.3301 62.0272 12.166 62.328 12.043C62.6287 11.9062 62.9364 11.8379 63.2508 11.8379C63.5106 11.8379 63.743 11.9131 63.9481 12.0635C64.1532 12.2139 64.3104 12.4258 64.4198 12.6992C64.5428 12.959 64.6112 13.2734 64.6248 13.6426C64.6522 14.0117 64.6043 14.415 64.4813 14.8525L64.2557 15.7549C64.1873 16.042 64.0985 16.3838 63.9891 16.7803C63.8934 17.1631 63.7704 17.5869 63.62 18.0518C63.5379 18.3525 63.5037 18.6123 63.5174 18.8311C63.5448 19.0498 63.6815 19.1592 63.9276 19.1592C64.1737 19.1592 64.4813 19.0088 64.8504 18.708C65.2332 18.4072 65.6161 18.0449 65.9989 17.6211C66.3817 17.1973 66.744 16.7666 67.0858 16.3291C67.4276 15.8779 67.6873 15.5156 67.8651 15.2422C67.9881 15.0645 68.1043 14.9482 68.2137 14.8936C68.3231 14.8389 68.4051 14.832 68.4598 14.873C68.5282 14.9141 68.5623 15.0098 68.5623 15.1602C68.5623 15.2969 68.5077 15.4746 68.3983 15.6934C68.3026 15.8848 68.1522 16.1377 67.9471 16.4521C67.7557 16.7666 67.5233 17.1016 67.2498 17.457C66.9764 17.8125 66.6825 18.1748 66.368 18.5439C66.0536 18.8994 65.7254 19.2275 65.3836 19.5283C65.0418 19.8154 64.7 20.0479 64.3582 20.2256C64.0301 20.417 63.7157 20.5127 63.4149 20.5127ZM73.1257 16.083C73.0574 16.5068 72.989 16.9102 72.9207 17.293C72.866 17.6758 72.8318 17.9834 72.8181 18.2158C72.8045 18.5576 72.866 18.8037 73.0027 18.9541C73.1394 19.1045 73.2898 19.1797 73.4539 19.1797C73.6453 19.1797 73.8777 19.084 74.1511 18.8926C74.4382 18.7012 74.739 18.4619 75.0535 18.1748C75.3679 17.8877 75.6824 17.5732 75.9968 17.2314C76.3113 16.8896 76.5984 16.5684 76.8582 16.2676C77.1316 15.9531 77.3572 15.6797 77.5349 15.4473C77.7263 15.2148 77.8562 15.0645 77.9246 14.9961C78.0066 14.9141 78.0886 14.8662 78.1707 14.8525C78.2664 14.8389 78.3416 14.8525 78.3962 14.8936C78.4509 14.9346 78.4783 15.0098 78.4783 15.1191C78.4783 15.2285 78.4236 15.3652 78.3142 15.5293C78.1502 15.7891 77.9382 16.0967 77.6785 16.4521C77.4187 16.7939 77.1316 17.1494 76.8171 17.5186C76.5027 17.8877 76.1677 18.25 75.8123 18.6055C75.4705 18.9609 75.1218 19.2754 74.7664 19.5488C74.4246 19.8223 74.0896 20.041 73.7615 20.2051C73.447 20.3828 73.1599 20.4717 72.9002 20.4717C72.7087 20.4717 72.5242 20.417 72.3464 20.3076C72.1824 20.1982 72.032 20.0547 71.8953 19.877C71.7586 19.6992 71.6492 19.501 71.5671 19.2822C71.4988 19.0635 71.4714 18.8447 71.4851 18.626C71.4988 18.5303 71.5193 18.3662 71.5466 18.1338C70.9724 18.7764 70.3914 19.2891 69.8035 19.6719C69.2293 20.041 68.6755 20.2256 68.1423 20.2256C67.9509 20.2256 67.7459 20.1777 67.5271 20.082C67.3084 19.9863 67.1101 19.8291 66.9324 19.6104C66.7683 19.3916 66.6316 19.1045 66.5222 18.749C66.4129 18.3936 66.3718 17.9629 66.3992 17.457C66.4402 16.6641 66.5974 15.9121 66.8709 15.2012C67.1443 14.4902 67.4861 13.875 67.8962 13.3555C68.3201 12.8223 68.7918 12.4053 69.3113 12.1045C69.8445 11.79 70.3777 11.6328 70.9109 11.6328C71.1433 11.6328 71.3552 11.6943 71.5466 11.8174C71.738 11.9268 71.9021 12.0771 72.0388 12.2686C72.1755 12.4463 72.2849 12.6445 72.367 12.8633C72.4627 13.082 72.531 13.2871 72.572 13.4785C72.6677 13.082 72.7566 12.6924 72.8386 12.3096C72.9207 11.9268 73.0027 11.5645 73.0847 11.2227C73.2214 10.7168 73.365 10.1699 73.5154 9.58203C73.6521 9.07617 73.8093 8.49512 73.9871 7.83887C74.1648 7.18262 74.363 6.49219 74.5818 5.76758C74.7185 5.6582 74.8484 5.57617 74.9714 5.52148C75.0945 5.4668 75.2107 5.42578 75.3201 5.39844C75.4431 5.35742 75.5593 5.33691 75.6687 5.33691C75.8054 5.33691 75.9285 5.35742 76.0379 5.39844C76.1472 5.42578 76.2361 5.51465 76.3045 5.66504C76.3865 5.80176 76.4412 6.01367 76.4685 6.30078C76.4959 6.58789 76.4959 6.97754 76.4685 7.46973C76.4412 8.07129 76.3318 8.72754 76.1404 9.43848C75.9627 10.1494 75.7234 10.8877 75.4226 11.6533C75.1218 12.4053 74.7732 13.1641 74.3767 13.9297C73.9939 14.6816 73.5769 15.3994 73.1257 16.083ZM71.9158 16.3496C71.9705 16.0898 72.0183 15.8301 72.0593 15.5703C72.114 15.3105 72.1755 15.0439 72.2439 14.7705C72.2166 14.7842 72.1892 14.7979 72.1619 14.8115C72.1482 14.8252 72.1277 14.8389 72.1004 14.8525C71.95 14.9209 71.8474 14.9209 71.7927 14.8525C71.738 14.7705 71.7107 14.6475 71.7107 14.4834C71.7107 14.4014 71.7039 14.2578 71.6902 14.0527C71.6765 13.834 71.6355 13.6152 71.5671 13.3965C71.5125 13.1641 71.4236 12.9658 71.3005 12.8018C71.1775 12.624 71.0066 12.5352 70.7879 12.5352C70.4734 12.5352 70.1521 12.6992 69.824 13.0273C69.4959 13.3418 69.1882 13.7314 68.9011 14.1963C68.614 14.6475 68.3748 15.1328 68.1834 15.6523C67.992 16.1719 67.8826 16.6367 67.8552 17.0469C67.8279 17.7031 67.9099 18.1748 68.1013 18.4619C68.2927 18.749 68.5525 18.8926 68.8806 18.8926C69.1267 18.8926 69.3933 18.7969 69.6804 18.6055C69.9812 18.4141 70.2683 18.1816 70.5418 17.9082C70.8289 17.6348 71.0886 17.3545 71.3211 17.0674C71.5671 16.7803 71.7654 16.541 71.9158 16.3496ZM76.4177 22.6455C76.2946 22.5635 76.2331 22.4746 76.2331 22.3789C76.2194 22.2832 76.2399 22.1875 76.2946 22.0918C76.3493 21.9824 76.4313 21.873 76.5407 21.7637C76.6501 21.668 76.78 21.4219 76.9304 21.0254C77.0807 20.6426 77.238 20.1777 77.402 19.6309C77.5798 19.0703 77.7507 18.4619 77.9147 17.8057C78.0925 17.1494 78.2565 16.5068 78.4069 15.8779C78.5573 15.249 78.6872 14.668 78.7966 14.1348C78.9059 13.6016 78.988 13.1777 79.0427 12.8633C79.111 12.4805 79.1862 12.0635 79.2682 11.6123C79.3366 11.2158 79.4118 10.7578 79.4938 10.2383C79.5759 9.70508 79.6511 9.11719 79.7194 8.47461L81.36 7.73633C81.5925 7.62695 81.7565 7.6543 81.8522 7.81836C81.9479 7.96875 81.9479 8.29004 81.8522 8.78223C81.8112 9.02832 81.736 9.43164 81.6266 9.99219C81.5173 10.5391 81.3874 11.1475 81.237 11.8174C81.1003 12.4736 80.9499 13.1504 80.7858 13.8477C80.6354 14.5312 80.485 15.1396 80.3346 15.6729C80.1979 16.1787 80.0407 16.7598 79.863 17.416C79.5485 18.5371 79.111 20.0684 78.5505 22.0098C78.7419 22.3379 79.0973 22.502 79.6169 22.502C80.1911 22.502 80.8542 22.2832 81.6061 21.8457C82.3718 21.4082 83.11 20.752 83.821 19.877C84.5319 19.002 85.154 17.9082 85.6872 16.5957C86.2341 15.2695 86.5759 13.7246 86.7126 11.9609C86.7809 11.0039 86.7331 10.1631 86.569 9.43848C86.405 8.71387 86.152 8.10547 85.8102 7.61328C85.4821 7.12109 85.072 6.75195 84.5798 6.50586C84.1012 6.25977 83.568 6.13672 82.9802 6.13672C81.5993 6.13672 80.1706 6.71094 78.694 7.85938L78.5915 6.15723C78.947 5.76074 79.3503 5.45996 79.8014 5.25488C80.2663 5.03613 80.697 4.87207 81.0934 4.7627C81.5583 4.63965 82.03 4.57129 82.5085 4.55762C83.3835 4.55762 84.2243 4.72852 85.0309 5.07031C85.8512 5.39844 86.5554 5.9043 87.1432 6.58789C87.7448 7.27148 88.2028 8.13281 88.5173 9.17188C88.8317 10.1973 88.9411 11.4004 88.8454 12.7812C88.7907 13.5742 88.6266 14.4014 88.3532 15.2627C88.0934 16.1104 87.7448 16.9443 87.3073 17.7646C86.8835 18.585 86.3776 19.3643 85.7897 20.1025C85.2018 20.8408 84.5593 21.4834 83.862 22.0303C83.1647 22.5908 82.4196 23.0283 81.6266 23.3428C80.8337 23.6709 80.0134 23.835 79.1657 23.835C78.9059 23.8213 78.6257 23.7734 78.3249 23.6914C78.0651 23.623 77.7712 23.5068 77.443 23.3428C77.1149 23.1787 76.7731 22.9463 76.4177 22.6455ZM99.7252 15.9189C99.5338 16.1924 99.2877 16.5342 98.9869 16.9443C98.6861 17.3408 98.3717 17.7441 98.0436 18.1543C97.7291 18.5508 97.4146 18.9199 97.1002 19.2617C96.7994 19.5898 96.5465 19.8223 96.3414 19.959C96.2047 20.041 96.0475 20.1094 95.8697 20.1641C95.692 20.2188 95.5074 20.2529 95.316 20.2666C95.1383 20.2803 94.9674 20.2666 94.8033 20.2256C94.6393 20.1982 94.4957 20.1436 94.3727 20.0615C94.2496 19.9658 94.1471 19.8291 94.065 19.6514C93.9967 19.501 93.9283 19.3027 93.86 19.0566C93.8053 18.8105 93.7848 18.5029 93.7984 18.1338C93.4703 18.6807 93.108 19.1045 92.7115 19.4053C92.315 19.6924 91.9391 19.9043 91.5836 20.041C91.1734 20.1914 90.7633 20.2803 90.3531 20.3076C90.1617 20.3076 89.9566 20.2393 89.7379 20.1025C89.5191 19.9795 89.3346 19.7812 89.1842 19.5078C89.0338 19.2207 88.9381 18.8584 88.8971 18.4209C88.8561 17.9697 88.9107 17.4365 89.0611 16.8213C89.2525 15.9873 89.5533 15.2285 89.9635 14.5449C90.3873 13.8613 90.8453 13.2803 91.3375 12.8018C91.8297 12.3096 92.315 11.9404 92.7936 11.6943C93.2721 11.4482 93.6686 11.3389 93.983 11.3662C94.3521 11.4346 94.6529 11.5439 94.8854 11.6943C95.0768 11.8311 95.1998 12.0361 95.2545 12.3096C95.3229 12.5693 95.2135 12.918 94.9264 13.3555C95.1178 13.3145 95.275 13.2871 95.398 13.2734C95.5348 13.2598 95.6373 13.2529 95.7057 13.2529C95.7877 13.2529 95.8424 13.2598 95.8697 13.2734C95.8834 13.3008 95.8902 13.3623 95.8902 13.458C95.8902 13.54 95.8697 13.6973 95.8287 13.9297C95.7877 14.1621 95.7262 14.4766 95.6441 14.873C95.5621 15.2695 95.4527 15.7822 95.316 16.4111C95.2887 16.5342 95.2613 16.6504 95.234 16.7598C95.2203 16.8555 95.1998 16.958 95.1725 17.0674C95.1588 17.1631 95.1383 17.2793 95.1109 17.416C95.0836 17.5527 95.0494 17.7236 95.0084 17.9287C94.9947 18.0518 94.9879 18.1885 94.9879 18.3389C95.0016 18.4756 95.0289 18.6055 95.0699 18.7285C95.1109 18.8516 95.1725 18.9541 95.2545 19.0361C95.3502 19.1045 95.4801 19.1387 95.6441 19.1387C95.7809 19.1387 95.9586 19.0566 96.1773 18.8926C96.3961 18.7148 96.6285 18.4961 96.8746 18.2363C97.1207 17.9629 97.3736 17.6689 97.6334 17.3545C97.9068 17.0264 98.1598 16.7119 98.3922 16.4111C98.6246 16.1104 98.8297 15.8438 99.0074 15.6113C99.1988 15.3789 99.3355 15.208 99.4176 15.0986C99.527 14.9756 99.6363 14.9072 99.7457 14.8936C99.8551 14.8662 99.9371 14.8936 99.9918 14.9756C100.046 15.0576 100.053 15.1807 100.012 15.3447C99.985 15.5088 99.8893 15.7002 99.7252 15.9189ZM93.7164 16.8213C93.7848 16.5479 93.8668 16.2266 93.9625 15.8574C94.0582 15.4883 94.1402 15.1328 94.2086 14.791C94.277 14.4492 94.3248 14.1689 94.3521 13.9502C94.3932 13.7178 94.3863 13.6084 94.3316 13.6221C94.2633 13.6357 94.1881 13.6562 94.1061 13.6836C94.0377 13.7109 93.9488 13.7314 93.8395 13.7451C93.7301 13.7588 93.6207 13.7793 93.5113 13.8066C93.6207 13.5879 93.6822 13.4102 93.6959 13.2734C93.7232 13.123 93.7301 13.0068 93.7164 12.9248C93.7027 12.8291 93.6754 12.7539 93.6344 12.6992C93.484 12.5762 93.2174 12.6787 92.8346 13.0068C92.4654 13.3213 92.0348 13.9092 91.5426 14.7705C91.3375 15.126 91.1734 15.5088 91.0504 15.9189C90.9273 16.3154 90.8385 16.6914 90.7838 17.0469C90.7428 17.4023 90.7359 17.7168 90.7633 17.9902C90.7906 18.25 90.8453 18.4209 90.9273 18.5029C91.0777 18.6533 91.2486 18.7285 91.44 18.7285C91.6314 18.7148 91.8229 18.6602 92.0143 18.5645C92.2193 18.4551 92.4176 18.3184 92.609 18.1543C92.8141 17.9902 92.9918 17.8193 93.1422 17.6416C93.3063 17.4639 93.4361 17.2998 93.5318 17.1494C93.6412 16.999 93.7027 16.8896 93.7164 16.8213ZM102.443 7.9209C102.402 8.07129 102.32 8.22168 102.197 8.37207C102.087 8.50879 101.958 8.625 101.807 8.7207C101.67 8.80273 101.527 8.85742 101.376 8.88477C101.226 8.91211 101.103 8.88477 101.007 8.80273C100.72 8.58398 100.57 8.35156 100.556 8.10547C100.542 7.8457 100.604 7.60645 100.741 7.3877C100.877 7.15527 101.048 6.96387 101.253 6.81348C101.459 6.64941 101.636 6.55371 101.787 6.52637C101.937 6.49902 102.06 6.5332 102.156 6.62891C102.265 6.71094 102.347 6.82715 102.402 6.97754C102.457 7.11426 102.484 7.27148 102.484 7.44922C102.498 7.62695 102.484 7.78418 102.443 7.9209ZM99.6128 12.2891C99.6812 12.207 99.8111 12.1387 100.002 12.084C100.194 12.0293 100.392 11.9883 100.597 11.9609C100.802 11.9199 100.987 11.8994 101.151 11.8994C101.329 11.8857 101.431 11.8857 101.459 11.8994C101.472 11.9131 101.438 12.0566 101.356 12.3301C101.274 12.6035 101.171 12.9248 101.048 13.2939C100.925 13.6631 100.795 14.0459 100.659 14.4424C100.522 14.8252 100.419 15.1396 100.351 15.3857C100.283 15.6318 100.201 15.9121 100.105 16.2266C100.009 16.5273 99.9204 16.8281 99.8384 17.1289C99.77 17.416 99.7222 17.6895 99.6948 17.9492C99.6675 18.209 99.688 18.4072 99.7564 18.5439C99.8247 18.708 99.8999 18.8242 99.982 18.8926C100.064 18.9473 100.153 18.9746 100.249 18.9746C100.522 18.9746 100.864 18.8242 101.274 18.5234C101.698 18.2227 102.122 17.8672 102.545 17.457C102.983 17.0332 103.386 16.6094 103.755 16.1855C104.125 15.748 104.398 15.3994 104.576 15.1396C104.685 15.0029 104.794 14.9141 104.904 14.873C105.027 14.832 105.123 14.8389 105.191 14.8936C105.273 14.9482 105.314 15.0371 105.314 15.1602C105.328 15.2832 105.287 15.4268 105.191 15.5908C104.972 15.9736 104.651 16.4316 104.227 16.9648C103.803 17.4844 103.352 17.9902 102.874 18.4824C102.395 18.9609 101.923 19.3711 101.459 19.7129C101.007 20.0547 100.638 20.2324 100.351 20.2461C100.119 20.2598 99.8862 20.2188 99.6538 20.123C99.4351 20.041 99.23 19.9248 99.0386 19.7744C98.8609 19.6104 98.7105 19.4258 98.5874 19.2207C98.4644 19.002 98.396 18.7764 98.3823 18.5439C98.3413 18.2021 98.3413 17.7373 98.3823 17.1494C98.4234 16.5479 98.4986 15.9395 98.6079 15.3242C98.7173 14.6953 98.854 14.1006 99.0181 13.54C99.1958 12.9795 99.3941 12.5625 99.6128 12.2891ZM102.966 19.6719C103.568 17.1426 104.046 15.1123 104.402 13.5811C104.771 12.0498 105.051 10.8809 105.243 10.0742C105.461 9.11719 105.612 8.4541 105.694 8.08496C105.735 7.8252 105.769 7.57227 105.796 7.32617C105.824 7.10742 105.837 6.88184 105.837 6.64941C105.837 6.41699 105.817 6.20508 105.776 6.01367C105.885 5.94531 106.001 5.89062 106.124 5.84961C106.261 5.80859 106.391 5.77441 106.514 5.74707C106.664 5.70605 106.815 5.67188 106.965 5.64453C107.116 5.61719 107.252 5.60352 107.375 5.60352C107.485 5.60352 107.587 5.61719 107.683 5.64453C107.779 5.6582 107.84 5.69922 107.868 5.76758C107.95 5.83594 107.984 5.97266 107.97 6.17773C107.97 6.38281 107.956 6.59473 107.929 6.81348C107.874 7.07324 107.813 7.35352 107.745 7.6543C107.581 8.24219 107.355 9.08984 107.068 10.1973C106.822 11.1406 106.487 12.4258 106.063 14.0527C105.653 15.6797 105.133 17.7305 104.504 20.2051C104.436 20.2734 104.354 20.3213 104.258 20.3486C104.163 20.376 104.074 20.3896 103.992 20.3896C103.896 20.3896 103.793 20.3828 103.684 20.3691C103.588 20.3418 103.493 20.3008 103.397 20.2461C103.315 20.1914 103.233 20.1162 103.151 20.0205C103.069 19.9385 103.007 19.8223 102.966 19.6719ZM112.841 12.4531C113.019 12.3164 113.19 12.2139 113.354 12.1455C113.532 12.0635 113.689 12.0088 113.826 11.9814C113.976 11.9404 114.126 11.9268 114.277 11.9404C114.646 11.9678 114.871 12.084 114.953 12.2891C115.049 12.4941 115.063 12.8223 114.994 13.2734C114.953 13.5059 114.871 13.7998 114.748 14.1553C114.625 14.5107 114.482 14.9482 114.318 15.4678C114.154 15.9736 113.976 16.5547 113.785 17.2109C113.607 17.8672 113.436 18.6055 113.272 19.4258C113.108 20.0957 112.93 20.8682 112.739 21.7432C112.575 22.5088 112.376 23.4316 112.144 24.5117C111.925 25.5918 111.686 26.8291 111.426 28.2236C111.358 28.5654 111.207 28.7637 110.975 28.8184C110.756 28.873 110.524 28.8457 110.278 28.7363C110.182 28.6816 110.093 28.6201 110.011 28.5518C109.943 28.4834 109.868 28.4014 109.786 28.3057C109.703 28.2236 109.635 28.1074 109.58 27.957C109.895 26.8086 110.168 25.7627 110.401 24.8193C110.647 23.876 110.866 23.0557 111.057 22.3584C111.262 21.5518 111.453 20.8271 111.631 20.1846C111.7 19.8975 111.761 19.6172 111.816 19.3438C111.884 19.0566 111.952 18.7764 112.021 18.5029C111.843 18.79 111.652 19.0635 111.447 19.3232C111.242 19.583 111.016 19.8086 110.77 20C110.524 20.1914 110.257 20.335 109.97 20.4307C109.697 20.54 109.41 20.5742 109.109 20.5332C108.37 20.4375 107.844 20.1641 107.53 19.7129C107.229 19.2617 107.099 18.6738 107.14 17.9492C107.154 17.6621 107.195 17.3477 107.263 17.0059C107.331 16.6641 107.407 16.3359 107.489 16.0215C107.571 15.707 107.646 15.4268 107.714 15.1807C107.796 14.9209 107.858 14.7363 107.899 14.627C108.063 14.1074 108.179 13.6631 108.247 13.2939C108.329 12.9248 108.275 12.6172 108.083 12.3711C108.275 12.248 108.452 12.166 108.617 12.125C108.794 12.0703 108.952 12.0293 109.088 12.002C109.239 11.9883 109.389 11.9883 109.539 12.002C109.909 12.0566 110.12 12.1934 110.175 12.4121C110.244 12.6309 110.223 12.959 110.114 13.3965C110.059 13.6289 109.97 13.9297 109.847 14.2988C109.724 14.6543 109.594 15.0234 109.457 15.4062C109.321 15.7891 109.198 16.1445 109.088 16.4727C108.979 16.7871 108.917 17.0127 108.904 17.1494C108.781 17.7646 108.774 18.2432 108.883 18.585C108.993 18.9131 109.232 19.0771 109.601 19.0771C109.779 19.0771 109.977 19.002 110.196 18.8516C110.414 18.6875 110.633 18.4756 110.852 18.2158C111.084 17.9561 111.31 17.6621 111.529 17.334C111.747 16.9922 111.946 16.6504 112.123 16.3086C112.315 15.9668 112.479 15.6318 112.616 15.3037C112.766 14.9756 112.875 14.6816 112.944 14.4219C113.039 13.916 113.101 13.5195 113.128 13.2324C113.156 12.9453 113.06 12.6855 112.841 12.4531Z" fill="currentColor"/>
<path d="M26.8781 19.0086C26.8155 18.7706 26.7414 18.5343 26.6731 18.2988C26.2713 16.8999 25.8686 15.5002 25.4652 14.1012C25.0247 12.5706 24.5841 11.0391 24.1436 9.50844C24.0276 9.10663 23.9123 8.70398 23.7962 8.30217C23.5574 7.4722 22.911 6.9436 22.1403 6.59939C20.8855 6.03785 19.2923 5.81553 17.9304 5.78343C16.4763 5.74966 14.9901 5.97693 13.6142 6.44957C13.3466 6.54179 12.9078 6.29807 12.6336 6.22398C12.3108 6.13671 11.9839 6.06341 11.6554 6.00165C10.93 5.86743 10.1947 5.79413 9.45778 5.78264C8.04899 5.76125 6.60969 6.03047 5.2643 6.4356C4.96788 6.54674 5.17951 6.46854 5.24538 6.44303C4.40551 6.76085 3.48501 7.27959 3.22068 8.20015C3.15397 8.43069 3.0881 8.66124 3.02143 8.89094C2.68634 10.056 2.35119 11.2203 2.01609 12.3854C1.55747 13.9778 1.09965 15.5703 0.641031 17.1627C0.374282 18.0889 -0.154369 19.2795 0.0432426 20.2544C0.28533 21.4607 1.46605 22.0165 2.60645 21.7834C3.00663 21.7019 3.3755 21.5166 3.75755 21.3792C4.39734 21.1502 5.05193 20.9567 5.71723 20.8184C7.3212 20.4857 8.94899 20.662 10.5249 21.0687C10.8765 21.1593 12.1956 21.3865 12.2335 21.781C12.2689 22.1474 12.6913 22.0478 12.9564 22.0478C13.2199 22.0478 13.4842 22.0478 13.7477 22.0478C13.9898 22.0478 14.3941 22.1318 14.6238 22.0305C14.8543 21.9308 14.6765 21.6789 14.893 21.585C15.1886 21.4574 15.4941 21.3512 15.802 21.2557C16.52 21.0326 17.2569 20.8654 18.0012 20.7567C19.5928 20.5245 21.0972 20.6925 22.6262 21.175C23.5212 21.4566 24.3891 21.9778 25.3598 21.8041C26.6838 21.5693 27.2255 20.2165 26.8781 19.0086ZM12.7851 10.7394C12.7332 13.5356 12.6813 16.3318 12.6295 19.128C12.6262 19.3149 12.5751 19.431 12.366 19.4261C11.2339 18.7526 9.88926 18.3639 8.58997 18.2C7.06262 18.0065 5.56736 18.2148 4.10335 18.6693C3.64968 18.8102 3.14079 19.1181 2.65994 19.1181C2.10826 19.1181 1.78797 18.6273 1.91723 18.1152C2.25402 16.7912 2.58911 15.4672 2.9259 14.1432C3.32112 12.5862 3.7155 11.0292 4.11157 9.47218C4.20953 9.08439 4.30833 8.69655 4.40635 8.30875C4.64759 7.36022 5.98972 7.17989 6.79086 7.01358C8.2886 6.70399 9.80526 6.70562 11.2964 7.05642C11.5541 7.11734 12.8485 7.31664 12.8419 7.68551C12.823 8.70319 12.8041 9.7217 12.7851 10.7394ZM24.007 19.0679C22.7743 18.5557 21.4158 18.1959 20.0811 18.1276C18.5644 18.0485 17.0115 18.3598 15.6134 18.9419C15.4553 19.0078 14.3998 19.7669 14.3578 19.2276C14.3347 17.9686 14.3116 16.7089 14.2878 15.4499C14.24 12.8489 14.1922 10.2478 14.1437 7.64588C14.1412 7.49602 14.5002 7.42108 14.5752 7.3931C15.1639 7.16998 15.7806 7.01679 16.4014 6.91551C17.914 6.67016 19.4027 6.7961 20.8823 7.17156C21.6109 7.35684 22.4006 7.59809 22.6048 8.40419C22.7201 8.85785 22.8354 9.31157 22.9506 9.76523C23.648 12.512 24.3446 15.2588 25.0421 18.0056C25.2165 18.6924 24.7596 19.3018 24.007 19.0679Z" fill="currentColor"/>
</svg>
