<svg viewBox="0 0 64 54" fill="currentColor" xmlns="http://www.w3.org/2000/svg">
<path fill-rule="evenodd" clip-rule="evenodd" d="M36.0353 0.724657C35.9166 3.06706 34.6588 4.41229 32.3417 4.67586C26.908 5.29338 22.5701 8.19508 22.0212 11.579C21.97 11.8958 21.9101 12.1449 21.8883 12.1328C20.3786 11.2905 19.0852 11.0153 16.0337 10.8869C13.4558 10.7784 13.0758 10.8389 10.7115 11.7352C9.14171 12.3303 7.20647 12.799 4.23398 13.3039C2.29098 13.6339 0.0364991 14.0371 0.000812188 14.0611C-0.0147039 14.0715 0.193987 14.4579 0.464548 14.9195C0.75268 15.4119 1.03509 15.9075 1.31172 16.4061L1.66665 17.0534L1.24559 17.1734C0.772154 17.3085 0.748492 17.3654 0.981427 17.8134C1.06774 17.9794 1.12747 18.1219 1.11409 18.1303C1.10071 18.1388 0.996167 18.2031 0.881542 18.2736C0.565985 18.4671 0.609235 18.6018 1.444 20.0224C1.86798 20.7438 2.26131 21.4238 2.31813 21.5332C2.38466 21.6615 2.43548 22.1237 2.46127 22.8341C2.50763 24.1066 2.4669 24.245 1.99812 24.406C1.05901 24.7285 0.886973 24.8182 0.706599 25.0787C0.383865 25.5445 0.344687 25.4574 2.71884 29.5485C3.20527 30.3865 3.80069 31.4402 4.04216 31.8899C4.28383 32.3396 4.78984 33.2738 5.16688 33.9657L5.85231 35.2238L5.56914 35.4639C5.41339 35.5962 5.31816 35.7237 5.35754 35.7477C5.46072 35.8101 6.34222 35.227 7.93766 34.0407C8.70377 33.4711 9.45397 32.9177 9.60448 32.811C9.85991 32.63 11.0504 32.065 12.8326 31.2789C13.7042 30.8944 13.9786 30.7205 14.0471 30.5087C14.0739 30.4257 14.1356 30.3717 14.1842 30.3886C14.3086 30.4322 14.796 30.2356 15.9771 29.6663C17.1092 29.1203 17.0163 29.1047 15.5983 29.6029C14.2959 30.0604 13.8006 30.2706 13.4197 30.5277C13.2405 30.6488 12.9144 30.8256 12.6951 30.9209L12.2963 31.0939L12.1532 30.86C12.0406 30.6726 11.9315 30.4831 11.826 30.2918C11.5667 29.8204 11.4649 29.726 11.3322 29.8339C11.2424 29.907 11.2777 30.0187 11.5535 30.5336C11.9552 31.2842 11.9604 31.1985 11.5005 31.4098L11.1152 31.5868L10.9652 31.4039L10.8151 31.221L10.9055 31.4008C10.9821 31.5531 10.9747 31.5961 10.8582 31.6796C10.7051 31.7894 10.5223 31.8107 10.5223 31.7188C10.5223 31.6859 10.2843 31.3005 9.99354 30.8621C9.70261 30.4238 9.04202 29.3384 8.52514 28.4502C8.00845 27.5619 7.40546 26.5508 7.18513 26.2032C6.78307 25.5689 6.24234 24.6387 5.39187 23.1182C5.03482 22.4842 4.67368 21.8524 4.30846 21.2228C2.162 17.5268 1.6397 16.5243 2.0468 16.8811L2.20836 17.0227L2.05378 16.7255C1.96864 16.5618 1.62321 15.9783 1.28612 15.4288C0.949037 14.8792 0.673239 14.408 0.673239 14.3817C0.673239 14.329 1.13639 14.2428 4.0825 13.7463C7.63277 13.148 9.02689 12.8053 11.0289 12.0378C13.1532 11.2237 13.3274 11.1995 16.1664 11.3284C19.2411 11.4677 20.9085 11.8639 21.822 12.6721L22.1517 12.9636L21.6023 12.784C19.5051 12.0987 16.7345 12.2112 13.9693 13.0938C13.6359 13.2002 12.3413 13.6542 11.0923 14.1026C7.97839 15.2206 5.6859 15.8725 3.80574 16.1745C3.1657 16.2773 3.03537 16.3376 3.1496 16.4781C3.19363 16.5323 3.69906 17.3795 4.27258 18.3607C6.02822 21.3648 7.30597 23.4545 7.72664 24.0103C7.88122 24.2147 8.08584 24.5325 8.18107 24.7165C8.2763 24.9006 8.91285 25.9839 9.59575 27.1244C10.5508 28.7187 10.8141 29.213 10.7368 29.2641C10.6813 29.3009 10.542 29.3806 10.4274 29.4415C10.2017 29.5614 10.1596 29.6794 10.3209 29.7401C10.4187 29.7768 11.0098 29.5448 12.9845 28.695C15.3772 27.6652 17.6796 26.7236 17.8049 26.7236C18.1063 26.7236 17.66 27.4173 17.211 27.6464C17.0116 27.7484 16.8926 27.8333 16.9469 27.8352C17.001 27.8371 17.1476 27.7867 17.2725 27.7233C17.3976 27.6599 17.5669 27.6289 17.6488 27.6544C17.7384 27.6822 18.0006 27.6118 18.3078 27.477C18.7672 27.2777 19.2277 27.0809 19.6893 26.8867C20.9587 26.3524 23.053 25.3582 22.9681 25.3305C22.8635 25.2962 21.2237 25.8682 20.3523 26.2429C19.5105 26.6047 19.5167 26.6068 19.6183 25.9876C19.7114 25.4203 19.6754 25.3554 19.3652 25.5326C19.231 25.6094 18.2688 26.0308 17.2271 26.4688C16.1907 26.9048 15.1552 27.3431 14.1208 27.7838C13.4542 28.0689 12.6501 28.4118 12.3339 28.546C12.0178 28.6801 11.6107 28.8601 11.4294 28.9462C11.1743 29.067 11.0855 29.0815 11.0376 29.0095C11.0034 28.9583 10.7839 28.5987 10.5498 28.2103C10.2129 27.6524 9.87545 27.0949 9.53737 26.5377C9.15531 25.9072 8.77562 25.2754 8.3983 24.6421C8.09457 24.1312 7.63491 23.3953 7.37715 23.0069C7.11919 22.6183 6.77105 22.0664 6.60348 21.7802C5.87267 20.5324 4.11354 17.5713 3.80903 17.0762C3.58483 16.712 3.50705 16.5249 3.57086 16.5041C3.62304 16.4872 4.04081 16.402 4.49911 16.3146C6.54374 15.9254 8.02979 15.49 11.0967 14.3815C13.915 13.3629 14.9949 13.0291 16.2036 12.8034C18.4475 12.3843 21.3596 12.6808 22.4467 13.4388C22.6748 13.5977 23.6483 15.0133 24.373 16.2402C25.1682 17.5858 25.2753 17.7683 25.5959 18.3236C25.7922 18.6621 25.9954 18.9967 26.2053 19.3272C26.4082 19.6422 26.5536 20.011 26.7001 20.5827C26.8141 21.0278 26.9669 21.5517 27.0399 21.7469C27.1613 22.0733 27.1621 22.1052 27.0484 22.1418C26.9803 22.1639 26.3855 22.3616 25.7266 22.5814L24.5286 22.9812L24.4241 22.7829C24.3666 22.6741 24.1845 22.2366 24.0193 21.8109C23.6448 20.8453 22.1781 17.2174 21.9743 16.7519L21.823 16.4067L21.0772 16.6571C20.6672 16.7949 20.0677 16.9479 19.7454 16.9972C19.4228 17.0463 19.1591 17.1137 19.1591 17.147C19.1591 17.1801 19.0043 18.3365 18.815 19.7168C18.4279 22.5389 18.1883 24.3382 18.1209 24.9303L18.0753 25.3299L17.6511 25.513C16.7587 25.8983 15.6009 26.4534 15.6299 26.4821C15.6978 26.5488 16.7188 26.2155 18.4771 25.5533C22.143 24.1725 27.2897 22.3979 27.3029 22.5102C27.3038 22.5176 27.432 22.7835 27.5882 23.1009C27.7441 23.4185 27.8717 23.7215 27.8717 23.7742C27.8717 23.8297 27.2738 24.1002 26.4512 24.4164C24.7916 25.0547 23.4615 25.6176 23.5073 25.6625C23.5654 25.7196 26.2555 24.9449 27.19 24.602C28.2181 24.2246 28.1842 24.2214 28.4417 24.7202L28.6301 25.0848L28.3455 25.2271C28.1892 25.3053 27.7509 25.4869 27.3715 25.6304C26.9924 25.774 26.5373 25.964 26.3605 26.0526C26.1834 26.1411 26.0292 26.203 26.0178 26.1898C26.0061 26.1767 25.9322 25.9653 25.8537 25.72C25.6717 25.1525 25.6017 25.1514 24.311 25.6937L23.3639 26.0917L23.3259 26.6102L23.2881 27.1286L22.4547 27.5199C20.9029 28.2483 20.9426 28.2211 20.9159 28.5762L20.8924 28.8898L20.1205 29.2531C19.6959 29.4529 18.7178 29.8986 17.9469 30.2432C15.7843 31.2103 13.0283 32.4755 11.7727 33.0776C7.21326 35.2637 6.13528 35.8025 5.90079 36.0126C5.72701 36.168 5.68784 36.232 5.78714 36.1975C6.30479 36.0185 6.0866 35.6651 10.4462 43.7466C11.5688 45.8287 12.6929 47.9101 13.8184 49.9907C14.2264 50.7456 14.626 51.5048 15.0173 52.2682C15.9467 54.092 15.8084 54.0787 18.7743 52.6301C21.848 51.1287 21.7169 51.1736 21.3117 51.7639C20.9723 52.2585 20.2648 52.7744 19.1812 53.3177C18.7141 53.552 18.3561 53.767 18.3856 53.7957C18.6622 54.065 23.2039 54.0694 23.8034 53.801C24.5488 53.4673 25.5335 52.3352 26.0463 51.2221C26.3624 50.5363 26.3665 50.538 25.4095 50.9254C23.8884 51.5412 22.5996 51.6566 22.0051 51.2299C21.8786 51.1393 21.9436 51.0925 22.6903 50.7346C24.5546 49.8415 25.3236 49.4605 26.6217 48.7868C27.9039 48.1215 28.9037 47.6125 32.0007 46.0484C32.709 45.6907 33.8739 45.0988 34.5892 44.7331C35.514 44.2604 35.9238 44.0868 36.007 44.1325C36.0877 44.1768 36.3084 44.1064 36.7141 43.9068C37.0386 43.7473 37.9349 43.3734 38.7056 43.0759C39.4766 42.7783 40.1478 42.5041 40.1973 42.4664C40.3104 42.3802 40.3691 42.4949 40.9677 43.9696C41.7518 45.9021 41.9593 46.1445 43.5447 46.9807C43.9875 47.2144 44.401 47.4462 44.4636 47.4956C44.6095 47.6115 48.5874 47.6496 48.5149 47.5347C48.4136 47.3737 46.2072 46.0079 45.6139 45.7388C44.4051 45.1904 43.778 44.396 42.7908 42.1629C42.4425 41.375 42.4454 41.3929 42.6628 41.3252C42.7557 41.2962 42.9176 41.1824 43.0226 41.0725C43.1572 40.9313 43.4374 40.8058 43.9712 40.6479C44.3878 40.5244 45.598 40.1487 46.6607 39.8129C47.5694 39.5254 48.4785 39.2392 49.388 38.9542C49.8256 38.8178 51.2917 38.3548 52.6458 37.9251C54.0002 37.4956 55.4831 37.0269 55.9414 36.8838C56.3999 36.7407 57.8999 36.2655 59.2751 35.828C60.6502 35.3905 62.149 34.9182 62.606 34.7785C63.6742 34.4521 64.0796 34.085 63.9873 33.5276C63.9526 33.3179 62.4975 31.0503 61.4234 29.5323C60.981 28.9071 60.9136 28.7423 61.0627 28.652C61.1411 28.6044 61.142 28.553 61.0672 28.3918C60.95 28.1393 60.9413 28.1458 61.5169 28.0548C62.1106 27.961 62.0908 27.9848 61.8591 27.6409C61.2561 26.7469 61.1897 25.7546 61.6994 25.2545C61.887 25.0705 62.0404 24.9114 62.0404 24.9011C62.0404 24.8909 61.6568 24.8785 61.188 24.8739C59.6455 24.8585 59.8938 25.0576 58.1891 22.4687C57.2814 21.09 57.3303 21.2679 57.8165 21.1132C58.4046 20.9261 58.9929 20.5756 59.4804 20.1217L59.9132 19.7189L59.6888 19.4987C59.4263 19.2412 59.4081 19.0367 59.5858 18.3421C59.7425 17.7283 59.7576 17.7322 58.8819 18.1634C57.8241 18.6842 57.6629 18.716 56.3902 18.6542L55.3074 18.6014L54.8 17.8492C54.5209 17.4355 54.1852 16.9633 54.0537 16.7997C53.9222 16.6362 53.7558 16.4109 53.6838 16.299L53.5529 16.0956L54.5504 15.6052C56.1819 14.8031 56.6364 14.4565 55.4761 14.8993C54.7453 15.1783 54.7225 15.1785 54.582 14.9123L54.469 14.6974L54.8264 14.5465C55.5735 14.2312 57.1238 13.4748 57.0904 13.442C57.0446 13.3973 54.8113 14.0603 54.5343 14.2008C54.3111 14.3142 54.2872 14.3007 54.1676 13.9914C54.0981 13.8124 54.1181 13.7882 54.4872 13.6011C54.961 13.3611 55.116 13.2287 54.8429 13.297C54.2306 13.45 53.5741 13.6607 52.8731 13.9286C52.4356 14.0959 52.0566 14.2333 52.031 14.2341C51.9391 14.2363 51.5731 13.6228 51.6353 13.5711C51.7321 13.4904 52.9321 12.9714 53.0217 12.9714C53.1555 12.9714 53.1222 12.9172 52.3479 11.8745L51.5952 10.8614L52.0405 10.3942C52.575 9.83356 52.8272 9.42708 53.076 8.72544C53.3157 8.04911 53.3194 8.04988 52.4839 8.58919C51.4808 9.23659 50.1737 9.84669 50.0071 9.74564C49.9363 9.70282 49.1873 8.61697 48.3865 7.3962C47.8021 6.50559 47.7464 6.46506 47.2722 6.58438C46.8919 6.6801 46.7152 6.64394 46.8614 6.50045C46.9039 6.45878 47.7028 6.11281 48.6369 5.73145C50.4538 4.98947 52.872 3.93159 52.9715 3.83511C53.0048 3.80276 52.8173 3.5822 52.5549 3.34471C52.0343 2.86983 51.5158 2.39268 50.9996 1.91327L49.9214 0.913244L49.4342 1.34865C48.118 2.52432 46.043 3.37782 44.4923 3.38106L44.0288 3.3822L43.9376 2.91748C43.779 2.10852 43.177 1.08451 42.5967 0.636739C42.3331 0.433308 42.3309 0.433878 42.131 0.798874C41.8342 1.34009 41.175 1.94733 40.547 2.25752L40.2289 2.41471L40.3726 2.73346C40.688 3.43301 40.6217 4.55026 40.2371 5.0163L40.1009 5.18148L38.9296 5.05874C38.1126 4.96964 37.2971 4.86794 36.4833 4.75369C35.782 4.65359 34.9808 4.57062 34.7029 4.56986L34.1978 4.56815L34.4428 4.44959C35.391 3.99097 36.192 2.62081 36.468 0.986129L36.5149 0.708672L36.9094 0.964625C37.4674 1.32658 38.2442 1.593 38.9005 1.64761C39.2101 1.67311 39.4634 1.70718 39.4634 1.72297C39.4634 2.02098 38.7888 2.81739 38.2215 3.18904C37.8875 3.40789 37.9868 3.43605 38.494 3.2665C39.1566 3.04499 39.8104 2.25162 39.9605 1.48662L40.0043 1.26359L39.3361 1.25674C38.2824 1.24627 37.4946 0.958916 36.5857 0.254045C36.0776 -0.140067 36.0791 -0.141399 36.0353 0.724657ZM42.8649 1.52144C43.907 2.97914 43.7904 4.42124 42.5482 5.4422C42.0505 5.85115 41.7788 5.96952 40.3724 6.39065C39.7266 6.584 39.147 6.77391 39.0844 6.81254C38.9956 6.86773 39.0039 6.87496 39.1224 6.84623C39.2056 6.82606 39.4102 6.79085 39.5768 6.76821L39.88 6.72672L39.5012 6.87363L39.1224 7.02054L39.5012 6.9762C40.8243 6.82111 42.4529 6.17447 43.0078 5.58359L43.324 5.24714L43.9033 6.08008C44.9801 7.62893 48.0244 12.1602 48.0234 12.2129C48.0226 12.2605 42.7483 14.7926 42.6498 14.7926C42.5827 14.7926 41.8181 13.3111 40.8949 11.3917C40.4279 10.4208 40.0229 9.62632 39.9952 9.62632C39.9675 9.62632 39.7483 9.7308 39.508 9.85849C39.2679 9.98599 38.759 10.1999 38.3771 10.3335L37.6829 10.5765L37.6327 11.3837C37.4762 13.8993 37.4021 15.1132 37.2681 17.3573C37.1862 18.7269 37.098 20.2238 37.0716 20.6837C37.0126 21.7195 37.0264 21.7216 36.3526 20.5724C34.1705 16.8494 32.5093 15.4495 30.2961 15.4685C28.3238 15.4855 26.8147 16.8195 26.5686 18.7636C26.5488 18.9198 26.5226 18.8975 26.3688 18.5936L26.1915 18.2439L26.3985 17.6872C26.5123 17.3812 26.587 17.1125 26.5643 17.0905C26.5418 17.0684 26.4648 17.228 26.393 17.4454C26.2693 17.8208 26.0534 18.1571 26.0534 17.9746C26.0534 17.9285 26.1202 17.6802 26.2018 17.4229C26.3954 16.813 26.3418 16.7685 26.1231 17.3573C25.8678 18.0442 25.7617 17.59 26.0102 16.8741C26.0387 16.7923 25.9673 16.8927 25.8517 17.0971C25.5443 17.6412 25.5222 17.2998 25.8199 16.6042C26.1213 15.9005 26.075 15.872 25.746 16.5588C25.4336 17.2109 25.3719 17.0802 25.6347 16.3226C25.8457 15.7136 25.8494 15.541 25.6409 16.037C25.5648 16.2177 25.4867 16.3976 25.4066 16.5766L25.3056 16.7997L25.3007 16.5304C25.298 16.3822 25.3469 16.1188 25.4095 15.9449C25.472 15.7711 25.5205 15.608 25.5175 15.5825C25.5044 15.4746 25.2307 16.1454 25.2257 16.2981C25.2173 16.5489 25.0686 16.4996 25.0686 16.2459C25.0686 15.985 25.2342 15.3494 25.4037 14.9599C25.4704 14.8067 25.5086 14.6813 25.4885 14.6813C25.4223 14.6813 25.08 15.475 25.0272 15.7504C24.9989 15.8982 24.944 16.0193 24.9051 16.0193C24.7247 16.0193 25.2897 14.3912 25.7307 13.6405C26.4609 12.3973 28.009 10.9457 29.6522 9.96353C30.5508 9.42651 30.5688 9.30357 29.685 9.74031C27.5277 10.8062 25.587 12.9029 24.8085 15.0091C24.5815 15.6232 24.5398 15.6739 24.5329 15.3441C24.5286 15.1386 24.5158 15.1184 24.4658 15.2387C24.3717 15.4653 24.2798 15.0582 24.344 14.6993L24.3938 14.4209L24.2518 14.6261C24.1739 14.7387 24.0874 14.8088 24.0596 14.7815C24.0319 14.7543 24.0395 14.6955 24.0763 14.6508C24.1599 14.5498 24.4753 13.5539 24.4357 13.5153C24.4118 13.4917 24.1636 14.1187 24.0329 14.5324C24.0036 14.6251 23.9848 14.6215 23.9215 14.5108C23.8407 14.3697 23.9904 13.6493 24.215 13.0985C24.2782 12.9434 24.3141 12.8011 24.2947 12.7821C24.2753 12.763 24.1661 12.9903 24.0523 13.2869C23.7041 14.1931 23.7303 14.1463 23.6628 13.9832C23.6265 13.8957 23.6781 13.615 23.799 13.2397C24.2181 11.9388 24.1519 11.857 23.7086 13.1282C23.349 14.1591 23.2619 13.8335 23.5953 12.7046C24.3021 10.3112 26.4192 8.23409 29.5554 6.85708C30.5469 6.42167 30.6136 6.32176 29.7156 6.61711C26.8387 7.56328 23.8789 10.3479 23.1804 12.7649L23.0456 13.2316L22.8853 12.9745C22.797 12.8331 22.739 12.649 22.7561 12.5657C22.7733 12.4822 22.8092 12.2494 22.836 12.0485C22.8626 11.8475 22.9667 11.5004 23.0674 11.2772C23.3003 10.7603 23.2984 10.7011 23.061 11.0758C22.9572 11.2395 22.8007 11.599 22.713 11.8749C22.5309 12.4483 22.4163 12.5206 22.4182 12.0608C22.4281 9.65962 25.028 7.11208 28.6877 5.91756C31.2498 5.08139 34.4356 4.76282 36.3276 5.1537C36.7395 5.23896 37.6523 5.35884 38.3555 5.42031C39.0588 5.48178 39.6465 5.5442 39.6616 5.55885C39.7268 5.62298 39.0468 5.92118 38.0995 6.24393C36.7145 6.71587 36.2766 6.95755 35.6197 7.61219C34.8689 8.36026 35.14 8.40935 36.0539 7.69078C36.57 7.28487 37.0405 7.05232 38.3162 6.57239C40.6257 5.70348 41.2916 4.73846 40.8823 2.85335C40.8245 2.58731 40.829 2.58122 41.3406 2.2149C41.6248 2.01166 41.9919 1.67387 42.1566 1.46454C42.5272 0.99336 42.4849 0.989936 42.8649 1.52144ZM51.1194 2.56162C51.7505 3.15289 52.267 3.65889 52.267 3.68611C52.267 3.71332 51.9517 3.87127 51.5663 4.03721C51.1809 4.20296 50.4053 4.5377 49.8427 4.7809C48.0862 5.5402 45.04 6.74632 44.8558 6.75565C44.7099 6.76288 44.5819 6.61235 44.1093 5.87665L43.5389 4.98909L43.6708 4.77006C43.7433 4.64941 43.8412 4.37994 43.8886 4.17099L43.9743 3.79096L44.844 3.74225C46.4714 3.6509 48.6027 2.74469 49.6122 1.71479C49.934 1.38652 49.7618 1.28985 51.1194 2.56162ZM16.5452 5.49605C14.7663 7.27155 13.3528 7.92257 11.538 7.80249L10.7732 7.75168L10.5434 8.15016C10.268 8.62725 9.65898 9.24039 9.06878 9.63489C8.52495 9.99817 7.27474 10.6671 7.13936 10.6671C7.08312 10.6671 7.03715 10.6928 7.03715 10.7244C7.03715 10.7866 7.90139 10.9643 8.20318 10.9643C8.57014 10.9643 8.66847 11.0509 8.42875 11.1626C8.30927 11.2184 8.27766 11.2452 8.35873 11.2224C8.4398 11.1997 9.0876 11.1512 9.79823 11.1147C11.6152 11.0216 12.8365 10.744 14.1588 10.1238C16.0946 9.21546 18.1903 7.60305 17.858 7.27726C17.7657 7.18667 17.7502 6.9901 17.7752 6.22185C17.8055 5.2871 17.7072 4.64198 17.5285 4.6043C17.4878 4.59574 17.0454 4.99689 16.5452 5.49605ZM17.4166 5.8228C17.4166 6.10216 17.3778 6.51986 17.3305 6.75089C17.2677 7.05803 17.2671 7.19752 17.3284 7.27003C17.681 7.68678 14.6018 9.55077 12.9086 9.94546C12.7684 9.97819 12.7694 9.98142 12.9228 9.98941C13.0137 9.99417 13.1842 9.96239 13.3016 9.919C13.4346 9.86972 13.4864 9.868 13.4391 9.91463C12.9499 10.3961 8.86863 10.9373 8.32518 10.5927C8.22607 10.5299 8.22723 10.5205 8.33429 10.5194C8.72122 10.516 10.1175 9.41261 10.6776 8.66778L11.0351 8.19241L11.9718 8.17795C13.6792 8.1515 15.1072 7.47974 16.621 5.99102C17.4407 5.18491 17.4166 5.19005 17.4166 5.8228ZM46.4656 7.1176C46.7177 7.56176 49.0632 11.0342 49.3399 11.3733L49.5221 11.5963L48.9305 11.869L48.339 12.1417L47.6999 11.1999C44.6989 6.77867 44.9213 7.22283 45.5891 6.98572C45.8504 6.89285 46.0849 6.79675 46.1099 6.77201C46.1985 6.68504 46.2462 6.73129 46.4656 7.1176ZM47.7011 7.04319C47.9144 7.26946 49.6949 9.94488 49.6568 9.98199C49.5114 10.1249 47.2843 7.12159 47.3948 6.93167C47.4497 6.83709 47.5368 6.86887 47.7011 7.04319ZM47.5374 7.45195C47.6124 7.56442 47.659 7.65767 47.6407 7.65919C47.6225 7.66071 47.7135 7.77299 47.8428 7.90886C47.9722 8.04455 48.1917 8.34446 48.3308 8.5751C48.4697 8.80575 48.7303 9.20519 48.9099 9.46266C49.0895 9.72014 49.2366 9.96258 49.2366 10.0016C49.2366 10.1673 49.0859 10.0465 48.838 9.68208C48.4258 9.07616 47.7201 7.99107 47.484 7.60058C47.2588 7.22816 47.304 7.10237 47.5374 7.45195ZM34.1111 8.03085C33.1412 8.27881 31.8871 8.74523 31.8871 8.85808C31.8871 8.91003 31.9298 8.9382 31.9817 8.9205C32.6229 8.70261 34.488 8.1397 34.5681 8.1397C34.6261 8.1397 34.7541 8.07385 34.8524 7.99336C35.0849 7.80344 34.9804 7.80858 34.1111 8.03085ZM47.9313 8.75665C48.2253 9.19815 48.4117 9.51595 48.3457 9.46285C48.1925 9.33954 47.3426 8.075 47.3426 7.97033C47.3426 7.86757 47.3163 7.83255 47.9313 8.75665ZM52.4418 9.26076C52.2189 9.63374 51.4598 10.4794 51.2482 10.5906C51.1212 10.6574 51.0828 10.7124 51.1392 10.7466C51.1943 10.7799 51.16 10.8199 51.0459 10.8549C50.9466 10.8853 50.6357 11.0378 50.3547 11.1934L49.844 11.4764L49.5025 11.0648C49.0669 10.5401 49.0255 10.6079 50.0137 10.2288C51.0114 9.84631 52.2331 9.27294 52.3531 9.13097C52.5141 8.94048 52.5777 9.03335 52.4418 9.26076ZM22.8682 10.7476C22.7404 10.9961 22.6469 11.2328 22.6607 11.2734C22.6744 11.3139 22.7929 11.1105 22.9238 10.8212C23.2159 10.1763 23.1839 10.1339 22.8682 10.7476ZM51.6231 11.6098C51.7897 11.8384 52.0582 12.1727 52.2195 12.3529C52.5853 12.7611 52.8386 12.5944 50.2973 13.6184C49.9431 13.7612 49.6171 13.9071 49.5729 13.9425C49.5287 13.9781 49.1706 14.1283 48.7773 14.2765C48.3841 14.4245 47.6652 14.714 47.1797 14.9197L46.2972 15.2936L46.1448 15.7494C46.0608 16 45.8358 16.5643 45.6446 17.0035C45.4534 17.4427 45.297 17.8345 45.297 17.8743C45.297 17.9868 44.2844 18.4298 41.4331 19.5651C40.1583 20.0727 39.4764 20.3619 38.9031 20.6386C38.3257 20.9172 38.3263 20.9204 38.829 20.1004C39.4467 19.093 39.8331 18.277 39.8893 17.8608C39.9378 17.5025 39.9436 17.4958 40.4017 17.2874C44.2949 15.5161 47.543 13.9518 47.1153 14.0542C46.8325 14.1218 44.8822 14.8986 43.6102 15.4503L42.4917 15.9353L42.3781 15.6685C42.3156 15.5218 42.2735 15.3939 42.2844 15.3844C42.2955 15.3749 43.1907 14.9576 44.2741 14.4571C45.3493 13.9604 46.4226 13.4598 47.4941 12.9554C48.1817 12.6302 49.1532 12.1868 49.6534 11.9701C50.1534 11.7535 50.7158 11.4892 50.9034 11.3826C51.3293 11.1409 51.2664 11.1211 51.6231 11.6098ZM23.1496 11.833C22.9842 12.3432 22.8787 12.9014 22.9566 12.8542C22.9931 12.8321 23.023 12.7609 23.023 12.6962C23.023 12.6315 23.0936 12.3461 23.1799 12.0618C23.3564 11.48 23.3296 11.2777 23.1496 11.833ZM15.4835 13.2873C15.4343 13.4237 15.3856 13.5603 15.3375 13.697C15.065 14.4685 14.532 14.989 12.9466 16.0313C11.7725 16.8033 11.5209 16.9276 10.5979 17.1915L10.1055 17.3323L10.8935 17.4288C12.9158 17.6768 14.2279 17.3989 15.8326 16.3833C16.3431 16.0604 16.8059 15.7962 16.8613 15.7962C16.9868 15.7962 16.987 15.8014 16.8419 15.2495C16.5817 14.2599 15.6311 12.8869 15.4835 13.2873ZM24.6186 13.9052C24.5298 14.1383 24.472 14.3437 24.4902 14.3616C24.5084 14.3794 24.5961 14.2034 24.6849 13.9703C24.7737 13.7372 24.8315 13.5318 24.8133 13.514C24.7951 13.4961 24.7076 13.6723 24.6186 13.9052ZM51.3518 14.0396C51.4385 14.1772 51.5095 14.3218 51.5095 14.3608C51.5095 14.4244 50.5195 14.8676 50.4963 14.8145C50.491 14.8025 50.4142 14.6529 50.3256 14.4822L50.1644 14.1718L50.5907 13.9853C51.1446 13.7431 51.166 13.7446 51.3518 14.0396ZM16.2934 14.9235C16.5058 15.4676 16.4913 15.4961 15.7675 15.9603C14.5411 16.7464 13.8194 17.0027 12.5678 17.0967L11.9237 17.1453L12.2269 16.9685C13.808 16.0461 15.2287 14.8752 15.5399 14.2379L15.712 13.8858L15.9335 14.2278C16.0555 14.4158 16.2174 14.7288 16.2934 14.9235ZM50.6563 14.1106L50.2955 14.282L50.4718 14.4443C50.5686 14.5338 50.6797 14.6059 50.7187 14.6046C50.7577 14.6032 50.73 14.5682 50.6571 14.5265C50.382 14.3694 50.6695 14.1208 51.1057 14.1387C51.1545 14.1406 51.1765 14.0963 51.1543 14.0401C51.102 13.9062 51.0801 13.9092 50.6563 14.1106ZM53.9746 14.6447C54.2847 15.3437 54.2841 15.3466 53.8091 15.5277C53.2783 15.7304 52.4507 16.0788 51.9261 16.3207C51.2608 16.6275 48.8636 17.6568 48.5548 17.7683C48.409 17.8208 47.5924 18.1681 46.7404 18.5398C44.9202 19.3339 45.1723 19.274 45.0329 18.9465C44.8738 18.5729 44.8736 18.5731 45.2912 18.437C45.7245 18.2958 45.8434 18.1799 45.8678 17.8745C45.8917 17.5778 46.0209 17.4406 46.4712 17.2347C46.8894 17.0435 46.7953 17.0054 46.3197 17.1736C45.9398 17.308 45.8393 17.3108 45.9815 17.1835C46.1198 17.0598 47.3182 16.543 48.8578 15.9435C49.6304 15.6411 50.4007 15.3329 51.1685 15.0189C51.7936 14.762 52.5436 14.4634 52.8353 14.3553C53.127 14.2474 53.4168 14.1265 53.4792 14.0868C53.6582 13.973 53.6951 14.0146 53.9746 14.6447ZM49.5017 14.4934C49.1603 14.6997 49.1906 14.733 49.576 14.5751C49.8308 14.4706 49.837 14.4727 49.9873 14.7052L50.1398 14.9414L49.7934 15.1142C49.6029 15.2093 49.0009 15.4545 48.4553 15.6592C47.9099 15.8638 47.2443 16.1289 46.9761 16.2482C46.7076 16.3675 46.4759 16.4653 46.4607 16.4653C46.3768 16.4653 46.4516 16.2307 46.547 16.1947C46.6095 16.1713 46.6607 16.1201 46.6607 16.0813C46.6607 16.0423 46.6266 16.0311 46.5849 16.0564C46.542 16.0824 46.5092 16.0202 46.5092 15.9131C46.5092 15.6942 46.9947 15.4251 48.3347 14.9014C48.7589 14.7355 49.2292 14.5361 49.3797 14.4579C49.7742 14.2535 49.8584 14.2778 49.5017 14.4934ZM60.8282 14.6305C60.3695 14.8837 59.8241 14.9325 59.3961 14.7585C59.1818 14.6714 59.1571 14.6809 58.9279 14.9368C58.6271 15.2731 58.5508 15.3134 57.5722 15.6524L56.7787 15.9273L57.3829 16.0638C59.2254 16.48 60.6135 16.0314 61.2508 14.8137C61.5261 14.2875 61.483 14.2689 60.8282 14.6305ZM24.5815 14.7237C24.5536 14.8325 24.5455 14.9361 24.5633 14.9536C24.5812 14.9711 24.6186 14.8963 24.6463 14.7874C24.6743 14.6784 24.6824 14.5749 24.6646 14.5574C24.6467 14.5399 24.6093 14.6147 24.5815 14.7237ZM48.9751 14.8242C48.9513 14.8619 48.8281 14.9151 48.7016 14.9424C48.1906 15.0525 46.5222 15.8339 46.6114 15.9213C46.6301 15.9395 46.947 15.8057 47.3159 15.6238C47.6848 15.4419 48.1741 15.2348 48.4032 15.1639C48.6324 15.0927 48.8523 15.0052 48.8919 14.9694C48.9315 14.9336 49.0232 14.9041 49.0957 14.9041C49.1683 14.9041 49.2488 14.8708 49.2744 14.8299C49.3002 14.789 49.253 14.7555 49.1698 14.7555C49.0864 14.7555 48.9988 14.7863 48.9751 14.8242ZM40.1312 15.7405C40.3069 16.2413 40.4502 16.6924 40.4494 16.7428C40.4483 16.8349 39.7033 17.2459 39.6438 17.1873C39.5926 17.1371 39.7091 14.8299 39.7628 14.8299C39.7898 14.8299 39.9554 15.2396 40.1312 15.7405ZM49.5397 14.958C49.4771 14.981 49.3446 15.0295 49.2451 15.0657C49.1454 15.1018 49.0806 15.1475 49.1008 15.1675C49.1421 15.208 49.6912 14.9968 49.6912 14.9403C49.6912 14.9205 49.6826 14.9068 49.6722 14.91C49.6619 14.9132 49.6022 14.9347 49.5397 14.958ZM60.406 15.3115C60.0035 15.6101 59.1352 15.8706 58.5413 15.8706C58.2615 15.8706 58.2667 15.7525 58.5491 15.6971C58.6707 15.6733 58.8866 15.5534 59.0287 15.431C59.2625 15.2295 59.3447 15.2061 59.8872 15.1863C60.58 15.161 60.6017 15.1661 60.406 15.3115ZM53.4899 16.6324C53.7071 16.888 54.1693 17.5202 54.5172 18.0374C55.1889 19.0357 55.3285 19.198 55.4079 19.0721C55.4395 19.0222 55.8148 19.0117 56.4944 19.042C57.6333 19.0928 58.1121 19.011 58.7731 18.6523C58.9556 18.5533 59.1118 18.4722 59.1205 18.4722C59.129 18.4722 59.1098 18.6623 59.0776 18.8947C59.0293 19.2435 59.0429 19.3503 59.1552 19.508C59.6936 20.2633 56.9193 21.1096 55.5743 20.6005C55.1313 20.4329 54.697 19.8892 53.5066 18.0113C52.6926 16.7272 52.4216 16.2457 52.7383 16.6463C53.094 17.0956 53.4218 17.4292 53.4757 17.3967C53.5064 17.378 53.7275 17.6459 53.967 17.9919C54.2065 18.3379 54.4193 18.621 54.4399 18.621C54.4973 18.621 54.2223 18.1638 53.1092 16.4096C52.8572 16.0122 53.0673 16.1353 53.4899 16.6324ZM53.2558 16.7885C53.2946 16.8764 53.3857 17.032 53.4587 17.1342C53.5859 17.3129 53.5857 17.316 53.4538 17.2136C53.2989 17.0931 52.9666 16.4956 53.0995 16.5763C53.1468 16.6048 53.2172 16.7003 53.2558 16.7885ZM53.0781 17.928C53.6006 18.6759 54.1131 19.4304 54.6158 20.1912C57.3059 24.2806 58.1986 25.0488 60.5251 25.2762L61.0175 25.3244L60.9921 25.9683C60.9737 26.434 61.0012 26.7046 61.0918 26.9467C61.1606 27.1305 61.2343 27.3345 61.2557 27.3998C61.2883 27.4997 61.194 27.5261 60.6635 27.5669C60.3166 27.5935 59.8111 27.6826 59.5402 27.765C59.2694 27.8472 59.1538 27.8993 59.2834 27.8807C60.6139 27.6883 60.471 27.8097 59.0316 28.0946C57.8586 28.3265 54.139 29.2386 54.3359 29.2459C54.4884 29.2516 54.9158 29.1907 56.9643 28.8719C57.7351 28.7519 58.5024 28.6356 58.669 28.6135C58.9552 28.5756 59.9903 28.3941 60.3492 28.3191C60.4432 28.2993 60.5687 28.338 60.6411 28.4089C60.7597 28.5254 60.7268 28.5418 60.135 28.6624C57.5442 29.1909 56.443 29.4042 55.7527 29.5108C55.3156 29.5785 54.9406 29.6518 54.9193 29.6739C54.8982 29.6959 55.0173 29.6925 55.1839 29.6664C55.4436 29.6255 56.7585 29.4975 58.2524 29.3673L58.669 29.3309L58.1765 29.4307C57.802 29.5064 57.7454 29.5325 57.9405 29.5393C58.2145 29.549 59.0231 29.4333 59.4727 29.3203C59.7504 29.2503 60.1416 29.3304 60.3668 29.5034C60.4508 29.5679 60.4021 29.5955 60.1397 29.6316C58.919 29.7995 57.7074 29.9844 55.1082 30.3997C53.4831 30.6592 51.608 30.9439 50.9412 31.0322C49.2715 31.2532 47.8062 31.5784 46.5899 31.9976L45.4107 32.4041C44.963 32.5579 45.9155 32.119 46.6677 31.8248C48.0771 31.2735 49.9487 30.8457 52.4185 30.51C53.0457 30.4248 53.9721 30.2356 53.8202 30.2238C53.7785 30.2206 53.2331 30.284 52.608 30.3648C51.9829 30.4455 51.4034 30.5102 51.32 30.5085L51.1685 30.5053L51.32 30.4453C51.4034 30.4124 51.839 30.3097 52.2882 30.217C52.7376 30.1243 53.0909 30.0347 53.0737 30.0177C53.0465 29.9911 52.3718 30.1039 49.4179 30.6294C44.4516 31.5125 39.4135 35.2746 38.7343 38.6071C38.7078 38.7371 38.655 38.8623 38.6172 38.8853C38.3916 39.022 39.0408 36.9812 39.5146 36.0641C39.617 35.8657 39.6835 35.6866 39.6624 35.6658C39.603 35.6076 38.8606 37.0986 38.6185 37.7626L38.4017 38.3573L38.4451 37.8811C38.469 37.6193 38.5526 37.2682 38.6308 37.1007C38.8286 36.6773 39.3885 35.4074 39.4368 35.2723C39.4589 35.2108 39.3171 35.4451 39.1218 35.7926C38.6823 36.5751 38.3361 37.4153 38.276 37.8452C38.2271 38.1961 38.0995 38.2943 38.0995 37.9812C38.0995 37.5822 38.4217 36.5696 38.7838 35.8297C38.977 35.4352 39.0902 35.1235 39.0404 35.1235C39.0183 35.1235 38.8284 35.4832 38.6185 35.9227L38.0925 37.024C38.013 37.1901 37.948 37.3679 37.948 37.4187C37.948 37.4695 37.917 37.4923 37.8792 37.4693C37.7948 37.4181 37.9496 36.7287 38.1146 36.4213C38.2496 36.1699 38.3055 36.0438 38.624 35.2723C38.7683 34.9229 38.8051 34.7773 38.7227 34.8822C38.6503 34.9743 38.5086 35.2586 38.4077 35.514C38.3069 35.7694 38.128 36.1387 38.0105 36.3347C37.8928 36.5308 37.7954 36.7483 37.7939 36.8179C37.7923 36.8878 37.7394 37.0284 37.6759 37.1306C37.4585 37.4807 37.6228 36.7302 37.867 36.2563C38.1323 35.7418 38.2584 35.2904 38.0691 35.5324C38.0053 35.6143 37.9517 35.7168 37.9504 35.7604C37.9475 35.8605 37.5159 36.6923 37.4164 36.7899C37.3216 36.883 37.3138 36.6699 37.4085 36.5694C37.4449 36.5306 37.5885 36.2158 37.7273 35.8698C37.8664 35.5239 38.0392 35.1829 38.1115 35.1119C38.2747 34.9518 38.5216 34.4938 38.4075 34.5631C38.2394 34.6651 37.7192 35.5332 37.5202 36.0442C37.2702 36.686 37.1992 36.5859 37.4112 35.8904C37.6034 35.2596 38.3738 33.9539 38.9554 33.2736C41.3166 30.5112 45.1525 28.8468 51.3958 27.8757C54.283 27.4268 57.1978 26.8525 57.5382 26.6654C57.6288 26.6157 57.5609 26.4823 57.1868 25.9761C56.3462 24.8381 53.2833 20.2687 51.7453 17.8579L51.5194 17.5038L51.7919 17.3921C51.9416 17.3308 52.1289 17.3007 52.2083 17.3253C52.3357 17.3651 52.3415 17.3531 52.2581 17.2221C52.1759 17.0929 52.1441 17.0867 52.0071 17.1725C51.8047 17.2994 51.493 17.3413 51.46 17.2457C51.446 17.2048 51.5964 17.119 51.794 17.0551C52.0574 16.97 52.1503 16.9028 52.1414 16.8042C52.1227 16.598 52.2436 16.7428 53.0781 17.928ZM51.2028 17.5989C51.3357 17.7727 52.4744 19.4536 53.7335 21.3342C54.9926 23.2149 56.2913 25.147 56.6193 25.6277C56.9473 26.1084 57.2017 26.5122 57.1847 26.525C57.1082 26.5822 53.0892 27.3364 51.9641 27.5044C43.7629 28.7292 39.6057 30.954 37.1034 35.4573C36.7023 36.1791 36.7382 35.9351 37.1612 35.0645C37.3536 34.6687 37.5413 34.2609 37.5784 34.1581C37.7859 33.5838 37.1691 34.6546 36.9259 35.2908C36.7805 35.6716 36.6272 35.7741 36.704 35.4396C36.8433 34.8335 36.9253 34.5998 37.1598 34.1429C37.4492 33.5792 37.493 33.4138 37.2642 33.7484C37.0456 34.0683 36.7698 34.6618 36.6629 35.0428C36.5954 35.2833 36.5526 35.3429 36.5029 35.2658C36.3617 35.047 36.4457 34.7242 36.8495 33.9341C37.2834 33.0854 37.4116 32.6852 37.0638 33.2652C36.672 33.9185 36.3571 34.5505 36.3571 34.6829C36.3571 34.8788 36.2246 34.9279 36.1682 34.7532C36.1088 34.5697 36.2378 34.1935 36.5722 33.576C36.712 33.3175 36.8103 33.0903 36.7905 33.0709C36.7584 33.0395 36.5545 33.3773 36.3256 33.8407C36.2805 33.9324 36.2205 34.0076 36.1926 34.0079C36.1647 34.0083 36.1193 34.1088 36.0919 34.2315C36.025 34.5301 35.9721 34.5136 35.7638 34.1284C35.5946 33.8156 35.633 33.4882 35.8388 33.4882C35.9073 33.4882 36.1565 32.7463 36.1051 32.6958C36.083 32.6741 36.0301 32.7807 35.9874 32.9324C35.8567 33.3967 35.4478 33.9023 35.4478 33.5998C35.4478 33.5383 35.475 33.4882 35.508 33.4882C35.5894 33.4882 35.864 32.6823 35.803 32.6224C35.7764 32.5963 35.7337 32.6382 35.7085 32.7156C35.5167 33.301 35.2073 33.7037 35.3291 33.2094L35.4249 32.8191C35.45 32.717 35.4915 32.6167 35.5173 32.5961C35.5431 32.5757 35.6038 32.4085 35.6524 32.2245C35.7009 32.0404 35.7611 31.8231 35.7861 31.7413C35.8293 31.5995 35.776 31.6985 35.5495 32.1801C35.4936 32.2989 35.4478 32.4393 35.4478 32.4924C35.4478 32.5453 35.4005 32.6155 35.3427 32.6483C35.2849 32.6808 35.2252 32.7718 35.21 32.8502C35.1951 32.9286 35.14 33.0066 35.088 33.0235C34.9773 33.0599 34.9631 32.8732 35.0626 32.688C35.2498 32.34 35.379 31.9856 35.3479 31.9051C35.3291 31.8558 35.2178 32.0163 35.1008 32.2616C34.8066 32.8789 34.7554 32.5611 35.0339 31.8459C35.2991 31.1649 35.2304 31.1137 34.9129 31.7561C34.5209 32.5495 34.5471 32.099 34.9474 31.1612C35.2787 30.3854 35.3621 30.0524 35.0673 30.6821C34.986 30.8558 34.8877 31.048 34.8489 31.1095C34.8101 31.1708 34.7011 31.3881 34.6067 31.5927C34.4825 31.8614 34.4265 31.9255 34.4036 31.8244C34.3863 31.7476 34.4051 31.6138 34.4451 31.527C34.4852 31.4404 34.5795 31.1856 34.6548 30.9607C34.73 30.7359 34.8415 30.4756 34.9026 30.3824C34.9639 30.2891 34.9953 30.1945 34.9726 30.1723C34.95 30.1502 34.8055 30.3936 34.6515 30.7137C34.2597 31.5272 34.2715 31.5066 34.1829 31.5356C34.133 31.5519 34.1445 31.4273 34.2133 31.2054C34.5252 30.2002 34.6732 29.9532 34.924 30.0175C35.1232 30.0687 36.0768 29.7997 36.5797 29.5507C38.378 28.6599 38.8701 26.9183 38.0974 24.1788C37.8276 23.2227 37.828 23.2297 38.0427 23.2299C38.1946 23.2301 38.2415 23.3234 38.4723 24.0847C38.6148 24.555 38.7512 24.9394 38.7754 24.9392C38.7995 24.939 39.5175 24.6528 40.3709 24.3032C42.2997 23.5129 43.9184 22.9148 43.9981 22.9629C44.0313 22.9831 44.2737 23.4611 44.5367 24.0254C44.7997 24.5894 45.0424 25.0808 45.0755 25.1171C45.1101 25.1548 45.5705 25.0519 46.1446 24.8779C46.6993 24.7101 47.298 24.5369 47.4751 24.4931C47.8686 24.3957 47.8723 24.4591 47.4286 23.6861C47.208 23.3004 46.995 22.9106 46.7897 22.5169L46.5195 21.9899L47.5372 21.6698C48.0967 21.4938 48.5548 21.3243 48.5548 21.293C48.5548 21.262 48.319 20.8339 48.0308 20.3417C47.7427 19.8494 47.4846 19.3781 47.4574 19.2941C47.3892 19.0831 47.4408 19.0696 45.6514 19.7634C42.7231 20.8989 41.3571 21.396 41.3051 21.345C41.1866 21.2287 41.1387 21.2498 44.8802 19.7573C46.5738 19.0818 46.8211 18.9803 47.7197 18.5925C48.1563 18.4041 48.5713 18.268 48.6421 18.2901C48.678 18.3007 48.7165 18.2993 48.7515 18.2861C48.7864 18.2728 48.8159 18.2485 48.8353 18.217C48.8853 18.1293 50.6902 17.3245 50.9135 17.2903C50.9398 17.2863 51.07 17.425 51.2028 17.5989ZM1.9537 17.8749C2.07996 18.1187 2.42772 18.7291 2.7264 19.2315C3.40387 20.3709 5.24582 23.5367 5.63663 24.2334C5.79722 24.5196 6.37636 25.4895 6.92369 26.3891C7.47102 27.2886 8.16963 28.4594 8.47626 28.9909C8.7829 29.5224 9.15761 30.1412 9.30909 30.366C9.65122 30.8743 10.0089 31.4811 9.96619 31.4811C9.94874 31.4811 9.75964 31.2593 9.54629 30.9881C9.16149 30.4988 9.03988 30.4088 9.28737 30.7961C9.39125 30.9536 9.50044 31.1077 9.61476 31.2581C10.0193 31.7889 10.1671 32.0758 10.036 32.0758C9.97007 32.0758 9.91615 32.0382 9.91615 31.9919C9.91615 31.9459 9.74839 31.6861 9.54338 31.4149C9.17177 30.923 8.8149 30.3334 7.26252 27.6485C6.73503 26.7392 6.19893 25.8347 5.65428 24.9352C5.22022 24.2221 4.73476 23.4044 4.57553 23.1182C4.30283 22.628 4.105 22.2919 3.13253 20.6652C1.29951 17.5991 1.27371 17.5504 1.44962 17.4808C1.66355 17.3961 1.73434 17.4515 1.9537 17.8749ZM50.7598 17.5164C50.5133 17.6075 50.5925 17.6636 50.8663 17.5919C50.9875 17.5601 51.0539 17.5148 51.0139 17.4916C50.974 17.4682 50.8595 17.4792 50.7598 17.5164ZM51.8124 17.6547C51.8124 17.6954 51.8826 17.7289 51.9685 17.7289C52.0543 17.7289 52.1033 17.6954 52.0777 17.6547C52.0519 17.6138 51.9817 17.5803 51.9216 17.5803C51.8617 17.5803 51.8124 17.6138 51.8124 17.6547ZM26.5013 18.0539C26.4481 18.1978 26.3735 18.2968 26.3351 18.2736C26.2968 18.2503 26.3081 18.3093 26.3603 18.4049C26.4508 18.571 26.4588 18.5628 26.5505 18.2094C26.664 17.7712 26.6368 17.6855 26.5013 18.0539ZM30.9264 18.1059C31.5977 18.289 32.6997 19.7921 33.8241 22.0588C34.2475 22.9125 34.2484 22.9013 33.7114 23.5511C33.3 24.049 33.2137 24.1131 32.6697 24.3257C32.3435 24.453 31.5481 24.7792 30.9022 25.0505C30.109 25.3821 29.3135 25.7081 28.5156 26.0287C27.849 26.2955 27.2012 26.5638 27.0761 26.6251C26.9512 26.6863 26.6103 26.8302 26.3186 26.9448C25.3017 27.3446 24.3387 27.7482 22.8787 28.3869C22.0701 28.7404 21.4015 29.0209 21.393 29.0103C21.1077 28.6495 21.7821 28.2263 23.6669 27.5836C24.0837 27.4416 24.8166 27.1539 25.2959 26.9444C25.973 26.6509 26.6528 26.3633 27.3353 26.0818C27.9778 25.8169 28.5653 25.5679 28.6405 25.5284C28.7327 25.48 28.8236 25.4848 28.9189 25.5432C29.0368 25.6155 29.2748 25.5417 30.3512 25.0989C31.061 24.8067 31.678 24.5679 31.7222 24.5679C31.8657 24.5679 31.9045 24.4128 31.7928 24.2844C31.231 23.6381 29.7476 20.5804 29.5389 19.638C29.3192 18.6446 30.0286 17.8614 30.9264 18.1059ZM1.56599 18.9741C1.72678 19.2091 2.15987 19.92 2.52857 20.5537C4.22118 23.464 6.4136 27.0586 7.10755 28.0616C7.2633 28.2866 7.64014 28.8887 7.94503 29.3996C8.29344 29.9804 8.65153 30.5555 9.01913 31.1247C9.64443 32.0829 9.73559 32.2859 9.5684 32.3487C9.37658 32.421 8.65373 31.3449 7.51252 29.2881C7.2856 28.8794 7.0451 28.4946 6.978 28.4333C6.86958 28.3342 6.86492 28.3342 6.93649 28.4333C6.98052 28.4946 7.11066 28.7791 7.22548 29.0651C7.49041 29.7254 7.67311 30.083 8.40411 31.3719C8.72956 31.9455 9.01758 32.5141 9.04454 32.6355L9.09322 32.8563L8.93554 32.6798C8.5201 32.2146 7.33836 30.0952 7.18863 29.5466C7.0482 29.0322 6.75767 28.3918 6.29548 27.5785C6.02858 27.1069 5.76737 26.6323 5.51192 26.1546C5.31332 25.7805 4.76928 24.8439 4.30283 24.0733C3.6805 23.0401 3.06463 22.0031 2.45526 20.9625C1.90521 20.0222 1.38174 19.1358 1.29175 18.9927C0.924017 18.4073 1.16704 18.391 1.56599 18.9741ZM11.9016 19.6949C11.5349 20.4847 10.6324 20.9379 8.47665 21.416C8.22316 21.4721 8.43495 21.6371 8.91227 21.7553C9.08934 21.7992 9.23422 21.8601 9.23422 21.8908C9.23422 21.9214 9.36204 21.9675 9.51836 21.993C9.67469 22.0185 9.93885 22.0672 10.1055 22.1009L10.4086 22.1625L10.1175 22.2864C9.95747 22.3545 9.69292 22.4495 9.5298 22.4975C9.36669 22.5454 9.24722 22.5981 9.26409 22.6149C9.28097 22.6314 9.6293 22.5424 10.0381 22.417C11.5011 21.9684 11.4939 22.1688 10.0288 22.6741C9.46464 22.8685 9.01545 23.0398 9.03058 23.0548C9.0459 23.0699 9.54959 22.9171 10.1503 22.7155C10.7507 22.5138 11.5182 22.3121 11.8559 22.267C12.59 22.169 12.6763 22.145 13.7316 21.749C14.1842 21.5791 14.6747 21.4154 14.8219 21.3855L15.0894 21.3309L14.5673 20.9922C14.225 20.7734 13.8748 20.5669 13.5172 20.3731C13.2271 20.2188 12.8039 19.9623 12.577 19.8028C12.0938 19.4635 12.0149 19.4509 11.9016 19.6949ZM42.5365 19.7918C42.5615 19.9042 42.5961 20.0401 42.6133 20.094C42.6329 20.1556 42.4553 20.2746 42.1335 20.4158C41.7338 20.5933 41.3362 20.7753 40.9407 20.9617C40.5656 21.1387 39.9007 21.4179 39.4634 21.5821C38.6273 21.8955 37.8096 22.2329 35.9546 23.0295C34.6635 23.5841 34.7153 23.5502 34.8229 23.7689C34.9123 23.95 35.2093 24.7561 35.4028 25.343C36.0343 27.2578 34.5937 27.8154 33.1175 26.2275C32.4001 25.4559 32.4218 25.5405 32.8737 25.2772C33.1026 25.144 33.2508 25.005 33.2508 24.9242C33.2508 24.7847 33.1051 24.7464 32.9819 24.8534C32.9422 24.8876 32.1598 25.2275 31.2432 25.6085C30.3264 25.9897 29.5459 26.3276 29.5089 26.3594C29.3508 26.4953 31.0147 28.4778 31.6481 28.9087C31.9057 29.0837 32.2224 29.5545 33.5469 31.7308C34.4212 33.1676 35.34 34.6692 35.5888 35.0677C35.8377 35.4664 36.0324 35.7926 36.0215 35.7926C36.0107 35.7926 35.809 35.7275 35.5731 35.6478C33.3824 34.9083 30.4637 35.4717 26.0973 37.4771C24.2924 38.3061 19.8189 40.5769 19.0503 41.0542L18.7522 41.2393L18.5755 41.0249C18.4781 40.9069 17.9005 40.0408 17.2919 39.1006C16.6833 38.1601 16.0407 37.1734 15.8638 36.9075C15.0803 35.7304 14.3766 34.654 14.27 34.4692C14.1861 34.3262 14.0992 34.185 14.0093 34.0456C13.6441 33.4841 13.6291 33.4304 13.8066 33.3166C14.0865 33.1368 14.7139 32.8435 15.0301 32.7447C15.4183 32.6235 16.9079 31.9236 16.8656 31.8821C16.8481 31.865 16.5768 31.9656 16.2628 32.1061C15.9488 32.2465 15.4577 32.4524 15.1714 32.5638C14.8229 32.7024 14.4794 32.8531 14.1418 33.0155C13.552 33.3044 13.4769 33.3166 13.4769 33.1227C13.4769 33.0443 13.4342 32.9649 13.3822 32.9461C13.217 32.8867 13.4003 32.7809 14.5376 32.2787C15.2575 31.9595 15.9747 31.6343 16.6889 31.303C17.9285 30.7251 17.7954 30.7534 17.7954 31.0669C17.7954 31.2979 17.7564 31.3434 17.3741 31.558C17.1426 31.688 16.9688 31.81 16.9882 31.829C17.0076 31.848 17.1623 31.7774 17.3321 31.6724C17.502 31.5672 17.6629 31.4811 17.6901 31.4811C17.7362 31.4811 17.6994 32.2416 17.5937 33.4696C17.5681 33.7661 17.5665 34.0085 17.5902 34.0085C17.6139 34.0085 18.7351 33.5115 20.0819 32.9038C22.8472 31.6564 24.5333 30.9306 24.5726 30.9708C24.6201 31.0189 25.4473 33.3373 25.4473 33.4222C25.4473 33.4671 25.49 33.4863 25.542 33.4645C26.0947 33.2336 27.2668 32.8037 27.7202 32.6656C28.3966 32.4597 28.4379 32.4319 28.3358 32.2519C28.2554 32.1095 27.5938 30.6014 27.4161 30.1547C27.291 29.8404 27.2623 29.8583 28.5345 29.4565C29.0864 29.2822 29.5381 29.1119 29.5381 29.078C29.5387 28.9222 28.5236 26.798 28.4487 26.7984C28.3564 26.7988 26.6169 27.474 23.6669 28.6542C21.4223 29.5525 20.533 29.8832 20.6364 29.7818C20.7677 29.6527 24.7355 27.9465 28.061 26.5889C28.5612 26.3847 29.5498 25.9792 30.2583 25.6878C30.9666 25.3963 31.9212 25.0068 32.3795 24.822C32.8378 24.6374 33.2874 24.4461 33.3784 24.397C33.5822 24.2868 34.5388 23.0967 34.5388 22.9532C34.5388 22.8472 34.9546 22.6428 36.3192 22.0784C40.0072 20.5524 42.3445 19.6028 42.4355 19.5931C42.4659 19.5901 42.5115 19.6793 42.5365 19.7918ZM12.7952 20.4437C13.0659 20.6123 13.4218 20.811 13.5859 20.8852L13.8844 21.02L13.5423 21.1905C12.513 21.7039 11.5878 21.8596 10.4771 21.7066C9.54707 21.5785 9.48539 21.5543 9.90917 21.4841C10.6345 21.3638 12.1132 20.4329 12.1132 20.0964C12.1132 20.0173 12.0969 20.0091 12.7952 20.4437ZM56.2488 21.2512C56.2514 21.2559 56.3575 21.3937 56.4849 21.5572C56.7673 21.9197 57.8873 23.5673 58.0256 23.8238C58.1711 24.0933 57.2582 23.3017 56.7985 22.7599C56.4298 22.3252 55.6763 21.2681 55.6763 21.1855C55.6763 21.1513 56.231 21.2148 56.2488 21.2512ZM57.982 22.8017C58.5625 23.6492 59.0185 24.3613 58.9952 24.3839C58.9184 24.4593 58.4989 24.053 58.2446 23.657C57.971 23.2378 57.6938 22.8209 57.4131 22.4063C56.6449 21.2683 56.6096 21.2023 56.7876 21.2352C56.8699 21.2504 57.3557 21.8877 57.982 22.8017ZM21.431 22.8522C21.598 23.4417 21.7157 23.9424 21.6926 23.9651C21.6698 23.9877 21.4483 24.0781 21.2006 24.166L20.75 24.326L20.7524 23.908C20.7541 23.5818 20.9395 21.5471 20.9836 21.3714C20.9952 21.325 21.0522 21.5138 21.431 22.8522ZM40.1389 21.6995C40.092 21.7452 38.5468 22.3844 38.3268 22.4491C37.9413 22.5627 38.2382 22.4145 39.1224 22.0523C39.9574 21.7104 40.2219 21.6185 40.1389 21.6995ZM9.23422 22.2668C9.15121 22.322 9.18186 22.3288 9.34788 22.2923C9.62639 22.2312 9.68691 22.1888 9.49315 22.1903C9.41324 22.1909 9.29668 22.2253 9.23422 22.2668ZM8.62813 22.4493C8.48228 22.5043 8.4142 22.5494 8.47665 22.5494C8.5391 22.5494 8.70959 22.5043 8.85544 22.4493C9.00129 22.3941 9.06956 22.349 9.00691 22.349C8.94446 22.349 8.77398 22.3941 8.62813 22.4493ZM37.9585 22.6375C37.7694 22.7922 37.6451 22.8253 37.6451 22.7209C37.6451 22.6546 37.9321 22.4984 38.0617 22.494C38.1034 22.4925 38.057 22.5572 37.9585 22.6375ZM3.5183 23.7687C3.82804 24.3923 4.19655 25.103 4.33736 25.3483C4.57422 25.7664 4.80793 26.1861 5.03849 26.6076C6.22857 28.7796 6.7342 29.6474 6.78249 29.6C6.8304 29.553 4.4481 25.0532 4.15776 24.6421C4.00202 24.4218 3.70372 23.8532 3.70372 23.7768C3.70372 23.7087 4.85404 25.6011 5.29198 26.3891C5.47371 26.7162 5.68066 27.0673 5.75203 27.1697C5.90234 27.3847 6.59863 28.607 6.8593 29.113C6.95705 29.303 7.03715 29.5292 7.03715 29.6158C7.03715 29.7688 7.89849 31.487 8.44892 32.4326C8.7862 33.0117 8.73383 33.127 8.38007 32.5845C8.06005 32.0941 7.3306 30.8659 7.1508 30.5148C7.07769 30.3717 6.80189 29.9157 6.53812 29.5016C6.27434 29.0874 5.79664 28.2847 5.47643 27.7176C5.15622 27.1505 4.67599 26.3017 4.40951 25.8315C3.73359 24.6397 2.80049 22.635 2.9219 22.635C2.94014 22.635 3.20856 23.1452 3.5183 23.7687ZM10.7496 22.7466C10.6454 22.805 10.5942 22.8529 10.6359 22.8529C10.6776 22.8529 10.7969 22.805 10.901 22.7466C11.0052 22.6881 11.0564 22.6404 11.0147 22.6404C10.973 22.6404 10.8537 22.6881 10.7496 22.7466ZM38.1321 23.0307C38.1053 23.0994 38.0245 23.1555 37.9525 23.1555C37.807 23.1555 37.7739 22.949 37.8951 22.7987C38.0027 22.6649 38.1998 22.8577 38.1321 23.0307ZM50.9332 23.7485C49.948 24.3803 48.6107 26.038 47.9394 27.4601C47.5858 28.2091 47.6014 28.2502 48.0763 27.8221C49.1937 26.814 49.5849 26.5699 50.7897 26.1286C51.0227 26.0439 51.2552 25.958 51.4872 25.8709C51.4957 25.8665 51.4546 25.7305 51.3956 25.5685C51.2364 25.1297 51.254 24.3447 51.4336 23.8811C51.517 23.6659 51.5851 23.4817 51.5851 23.4714C51.5853 23.3879 51.3194 23.5009 50.9332 23.7485ZM3.67366 24.9972C3.97758 25.6218 4.39515 26.4079 4.60152 26.7442C4.80788 27.0805 5.23302 27.8304 5.54606 28.411C5.85929 28.9916 6.21713 29.6114 6.34106 29.7882C7.12967 30.9129 8.3919 33.2292 8.27746 33.3417C8.23887 33.3794 7.89364 32.8022 7.46229 31.9795C7.05073 31.1944 6.53773 30.2843 6.32225 29.9572C5.80789 29.1762 5.69986 28.9935 5.17949 28.0245C4.84974 27.4147 4.5149 26.8076 4.17502 26.2032C3.67579 25.3173 2.93703 23.7158 2.95119 23.5502C2.95391 23.5171 2.99328 23.5736 3.03866 23.6758C3.08405 23.778 3.36974 24.3727 3.67366 24.9972ZM50.9379 25.4979C50.9809 25.6281 50.9305 25.6641 50.5477 25.7756C50.3058 25.8462 49.8436 26.0515 49.5207 26.2321C49.1978 26.4127 48.9336 26.544 48.9336 26.524C48.9336 26.4115 49.8002 25.2859 50.2563 24.8062L50.7897 24.2452L50.8392 24.7969C50.8663 25.1002 50.9107 25.4157 50.9379 25.4979ZM27.5065 24.6532C27.2848 24.7367 27.1176 24.8191 27.1349 24.8362C27.1524 24.8532 27.2901 24.8165 27.441 24.7546C27.5919 24.6928 27.7825 24.6421 27.8647 24.6421C27.947 24.6421 28.0354 24.6086 28.061 24.5679C28.131 24.4568 27.9563 24.4836 27.5065 24.6532ZM2.41569 24.6351C2.41569 24.6722 2.19401 24.8043 1.92325 24.9285C1.3606 25.187 1.25179 25.3069 1.78244 25.0836C2.24443 24.8893 2.30611 24.9588 1.85576 25.1664C1.60032 25.2844 1.50665 25.3702 1.50684 25.4867C1.50703 25.6237 2.47659 27.3728 2.91201 28.0217C2.99308 28.1427 3.01713 28.216 2.96515 28.1846C2.81775 28.0955 2.97039 28.435 3.36314 29.0697C3.5503 29.3724 3.70372 29.6413 3.70372 29.6672C3.70372 29.6929 4.0569 30.3374 4.48883 31.0994C6.09843 33.9391 6.41379 34.5882 6.28966 34.8057C6.22023 34.9277 5.93124 34.4371 4.00337 30.9236C3.30787 29.6562 2.42985 28.0793 2.05223 27.4194C1.01188 25.6016 0.883288 25.3329 0.973475 25.1677C1.08985 24.9542 2.41569 24.4646 2.41569 24.6351ZM3.81485 26.1655C4.2623 27.0236 4.68879 27.8097 4.76269 27.9123C4.83659 28.0148 5.04004 28.3789 5.21479 28.721C5.38973 29.0632 5.72275 29.6318 5.9551 29.9846C6.34203 30.5726 7.82866 33.4797 7.77125 33.5362C7.72451 33.5819 7.029 32.2962 6.66845 31.4981C6.47023 31.0594 6.16844 30.5199 5.99757 30.2994C5.51658 29.678 2.60538 24.1719 2.96729 24.5679C2.98591 24.5883 3.36741 25.3072 3.81485 26.1655ZM4.76036 28.6192C5.10715 29.2733 5.45451 29.8971 5.5319 30.0056C5.67542 30.2059 5.97508 31.0552 5.97391 31.2581C5.97352 31.3194 5.89323 31.1474 5.79548 30.8756C5.69773 30.6039 5.50242 30.1865 5.36161 29.9481C4.5284 28.5389 2.9799 25.5461 2.90445 25.1997C2.87788 25.077 3.14262 25.5286 3.4927 26.2032C3.91233 27.01 4.33489 27.8153 4.76036 28.6192ZM26.1481 25.1809C26.0127 25.2235 25.902 25.2854 25.902 25.3181C25.902 25.351 26.0298 25.3259 26.1859 25.2625C26.6411 25.0774 26.6202 25.0323 26.1481 25.1809ZM2.31193 25.4785C2.28672 25.5704 2.26577 25.7544 2.26519 25.8873C2.26383 26.2066 2.14649 26.1948 2.03535 25.8641C1.95894 25.6368 1.96515 25.5788 2.07899 25.4553C2.25723 25.2619 2.36798 25.2732 2.31193 25.4785ZM26.6396 25.4245C26.3513 25.5282 25.9675 25.7573 26.0818 25.7573C26.1157 25.7573 26.2342 25.7067 26.3447 25.6448C26.4553 25.583 26.6822 25.485 26.8488 25.4271C27.0156 25.3691 27.1008 25.3217 27.0383 25.3217C26.9759 25.3217 26.7965 25.3679 26.6396 25.4245ZM49.1229 27.1012C48.6735 27.4346 48.613 27.5286 49.0345 27.2388C49.3529 27.0197 49.5261 26.8675 49.4493 26.8744C49.4365 26.8755 49.2897 26.9775 49.1229 27.1012ZM3.64747 29.1953C4.65214 30.8248 6.62093 34.3674 6.55693 34.4302C6.53501 34.4517 6.43067 34.302 6.32496 34.0976C6.1411 33.7413 5.53791 32.6814 4.75183 31.3325C4.49103 30.8788 4.23904 30.4203 3.996 29.9572C3.78266 29.5485 3.51539 29.0801 3.40193 28.9165C3.15794 28.5648 3.00259 28.2847 3.05127 28.2847C3.07047 28.2847 3.3389 28.6944 3.64747 29.1953ZM60.5986 29.3481C60.5972 29.397 60.5119 29.3429 60.4091 29.2284C60.3063 29.1136 60.2231 28.9798 60.2244 28.9309C60.2258 28.882 60.3109 28.9361 60.4139 29.0508C60.5167 29.1654 60.5997 29.2992 60.5986 29.3481ZM16.2422 29.1422C16.0528 29.2316 16.0465 29.2421 16.2044 29.2042C16.4189 29.1526 16.6604 29.032 16.5452 29.0337C16.5037 29.0343 16.3671 29.083 16.2422 29.1422ZM61.9046 30.833C63.7701 33.5918 63.719 33.5002 63.5703 33.8205C63.4815 34.0121 59.8259 35.2388 53.5929 37.1688C52.6069 37.4753 51.6221 37.7851 50.6382 38.0981C46.2348 39.501 45.8273 39.6239 45.8273 39.5495C45.8273 39.4484 46.6122 39.1622 48.8956 38.4311C50.2707 37.9909 51.7368 37.5211 52.1534 37.3871C52.7836 37.1865 53.415 36.9894 54.0475 36.7958C55.7168 36.2853 56.9275 35.8997 59.8433 34.9499C61.2809 34.4816 62.6486 34.0451 62.8827 33.98C63.6729 33.7598 63.6867 33.803 62.1191 31.5698C61.0617 30.0632 60.9256 29.8487 60.8592 29.5856C60.7634 29.2053 60.9725 29.455 61.9046 30.833ZM55.852 29.8067C54.9606 29.9726 54.4125 30.1173 55.0324 30.0227C55.9284 29.8862 57.1988 29.6368 57.0021 29.6358C56.8772 29.6352 56.3596 29.7121 55.852 29.8067ZM33.2544 30.0687C33.288 30.0687 33.331 30.0101 33.3501 29.9386C33.3768 29.8381 33.3867 29.8457 33.3935 29.9715C33.4104 30.2838 33.1648 30.2065 32.9936 29.8457C32.9645 29.7844 32.9976 29.8095 33.0671 29.9015C33.1367 29.9934 33.2209 30.0687 33.2544 30.0687ZM61.3286 31.0132C61.7826 31.6144 62.2997 32.2916 62.4776 32.5185C63.0586 33.2584 63.2613 33.5626 63.2187 33.6304C63.1956 33.6669 62.5204 33.9075 61.7184 34.1648C60.9163 34.422 59.1009 35.0066 57.6841 35.4637C56.2673 35.9208 54.7502 36.4023 54.3126 36.5338C53.4108 36.8046 52.2604 37.1652 48.8956 38.2318C47.6039 38.6412 45.816 39.2071 44.9229 39.4892C43.3395 39.9893 43.0204 40.1421 43.4553 40.1921C43.6612 40.2159 43.663 40.2195 43.5082 40.3061C43.3641 40.3868 43.3247 40.363 43.1056 40.0635C42.933 39.8279 42.8915 39.7223 42.9623 39.6996C43.0171 39.6819 43.3517 39.5828 43.7061 39.4789C44.0602 39.3752 45.1682 39.0256 46.1683 38.7019C48.0143 38.1047 52.1055 36.8033 53.5551 36.3521C53.9926 36.216 55.8165 35.6358 57.6082 35.0626C59.4 34.4894 61.1048 33.9507 61.3963 33.8654C62.7778 33.4618 62.7753 33.5341 61.475 31.5927C60.5846 30.2628 60.3804 29.9201 60.4787 29.9201C60.4923 29.9201 60.8748 30.4118 61.3286 31.0132ZM11.1109 30.28C11.2269 30.4372 11.3857 30.7047 11.4639 30.8747C11.5797 31.1268 11.7344 31.2865 11.7344 31.1536C11.7344 31.107 11.2005 30.1915 11.1124 30.0874C10.922 29.8619 10.9208 30.0223 11.1109 30.28ZM33.7054 30.1011C33.7054 30.2665 33.5549 30.6149 33.5048 30.5656C33.4369 30.499 33.5502 29.9943 33.633 29.9943C33.6728 29.9943 33.7054 30.0423 33.7054 30.1011ZM34.0816 30.0874C34.0803 30.1384 34.0132 30.314 33.9327 30.4775C33.8522 30.6412 33.7824 30.825 33.7777 30.8865C33.7731 30.9477 33.7362 30.9097 33.6959 30.8018C33.6408 30.6545 33.6561 30.53 33.7577 30.3001C33.884 30.0137 34.0873 29.8803 34.0816 30.0874ZM59.9948 30.2918C60.1251 30.5426 60.1312 30.589 60.0332 30.589C59.9692 30.589 59.8577 30.6212 59.7853 30.6604C59.5478 30.7894 57.3204 31.4693 55.745 31.8941C52.8927 32.6629 51.5882 33.0715 49.1128 33.972C45.2899 35.3627 42.0961 37.1593 41.1608 38.4452C40.969 38.7089 40.7935 38.9067 40.771 38.8844C40.7483 38.8623 40.8563 38.6928 41.0107 38.5078C41.3711 38.0764 41.2578 38.0754 40.7933 38.5059C40.5947 38.6899 40.4199 38.8404 40.4048 38.8404C40.316 38.8404 40.6184 38.303 40.8542 38.0412C40.937 37.9493 40.9708 37.8741 40.9289 37.8741C40.887 37.8741 40.745 38.0162 40.6131 38.19C40.2875 38.6197 39.7667 39.1885 39.7665 39.115C39.7661 39.0189 40.372 38.1565 40.625 37.8925C40.7524 37.7597 40.8224 37.651 40.7805 37.651C40.6957 37.651 40.1494 38.2556 39.7795 38.7586C39.6472 38.9384 39.539 39.0629 39.539 39.0349C39.539 38.919 39.9271 38.2452 40.1837 37.9152C40.3356 37.7201 40.6056 37.3384 40.784 37.0668C42.4302 34.561 45.3903 32.8616 50.1836 31.6703C51.3085 31.3907 51.5585 31.3512 51.358 31.4846C51.2331 31.5673 51.551 31.5129 51.8741 31.3959C52.1737 31.2876 53.717 31.0347 54.0417 31.041C54.4158 31.048 54.3929 31.0568 53.4577 31.2629C53.0498 31.3527 52.7331 31.4427 52.7535 31.4629C52.7903 31.4988 53.9779 31.2465 54.4346 31.1057C54.6819 31.0294 56.358 30.8834 56.8129 30.8986L57.078 30.9076L56.7748 30.9607C56.1984 31.0621 56.8165 31.0347 57.552 30.9264C57.9579 30.8665 58.6094 30.7822 58.9995 30.7388C59.5545 30.6771 60.3104 30.4404 59.9521 30.4404C59.9102 30.4404 59.8156 30.3401 59.7417 30.2174C59.6255 30.0244 59.623 29.9943 59.7239 29.9943C59.7879 29.9943 59.9097 30.1281 59.9948 30.2918ZM34.4629 30.146C34.4629 30.1884 34.3997 30.3473 34.3221 30.4992C34.2447 30.6509 34.1588 30.8669 34.1313 30.9793C34.0502 31.3104 33.9255 31.221 33.9759 30.8678C34.0477 30.365 34.4629 29.7496 34.4629 30.146ZM6.46674 31.4811C6.6603 31.9105 6.9361 32.4882 7.07943 32.7653C7.34476 33.2778 7.39712 33.4252 7.26853 33.2987C7.14344 33.1752 6.44483 31.8174 6.25262 31.324C5.94036 30.5224 5.94773 30.5458 6.03443 30.6263C6.07865 30.667 6.27318 31.0518 6.46674 31.4811ZM60.5586 31.0419C60.6715 31.2092 60.7528 31.3555 60.7392 31.3672C60.7256 31.3788 60.2714 31.5487 59.7297 31.7447C57.608 32.5124 55.2484 33.1229 52.7217 33.5581C51.7424 33.7267 50.8646 33.8808 50.7707 33.9008C49.9837 34.0679 51.7521 33.4776 53.1383 33.1103C53.4717 33.022 53.7682 32.9128 53.7975 32.8675C53.8266 32.8224 53.9864 32.7853 54.1528 32.7853C54.3394 32.7853 54.4207 32.7611 54.365 32.7221C54.3097 32.6835 54.3545 32.6713 54.4804 32.6911C54.5937 32.7088 54.6959 32.6998 54.7077 32.6713C54.7195 32.6429 55.4794 32.4094 56.3961 32.1527C58.4145 31.5873 59.9343 31.0695 60.1215 30.884C60.3131 30.6939 60.3272 30.6988 60.5586 31.0419ZM17.5006 31.0623C17.3511 31.2393 15.0655 32.288 14.5754 32.4047C14.3576 32.4566 13.5527 32.873 13.5527 32.9337C13.5527 32.972 13.7447 32.8922 14.1208 32.6983C14.2876 32.6123 14.5603 32.4996 14.7269 32.4481C15.8957 32.0861 17.7785 31.1424 17.6276 30.9944C17.6067 30.9738 17.5497 31.0044 17.5006 31.0623ZM10.5977 31.3319C10.6869 31.5036 10.7773 31.6273 10.7982 31.6067C10.8471 31.5588 10.6252 31.1348 10.5172 31.0691C10.4722 31.0419 10.5083 31.1601 10.5977 31.3319ZM60.0706 31.2202C59.7334 31.3428 58.027 31.8402 56.8681 32.1537C56.3776 32.2863 55.9899 32.4081 56.0064 32.4243C56.0464 32.4637 57.3163 32.1472 58.4417 31.8178C58.9417 31.6714 59.598 31.4817 59.9002 31.3963C60.2021 31.3108 60.4494 31.2115 60.4494 31.1751C60.4494 31.0937 60.4038 31.0992 60.0706 31.2202ZM35.4478 31.4811C35.3951 31.6064 35.3687 31.7257 35.3896 31.746C35.4104 31.7664 35.4707 31.6808 35.5237 31.5554C35.5766 31.4301 35.6028 31.311 35.5818 31.2905C35.5611 31.2701 35.5008 31.3557 35.4478 31.4811ZM52.267 31.5554C52.1148 31.6033 52.1074 31.6153 52.2292 31.6172C52.3126 31.6183 52.449 31.5906 52.5322 31.5554C52.7253 31.4741 52.5262 31.4741 52.267 31.5554ZM61.1151 31.8383C61.2138 31.9843 61.2122 32.0014 61.0994 32.0014C61.0301 32.0014 60.6253 32.1205 60.2 32.2661C59.4521 32.5219 57.775 33.0191 56.4215 33.3864C55.4992 33.6365 53.2589 34.1257 52.0019 34.3512C47.2299 35.208 43.9917 36.5648 41.3971 38.7949C40.8521 39.2635 40.8878 39.1392 41.4911 38.4688C42.093 37.7997 44.1102 36.5496 45.761 35.8226C47.7449 34.9488 49.1822 34.5585 53.4036 33.7467C54.5911 33.5181 56.0229 33.2039 56.5855 33.0483C58.4401 32.535 59.95 32.0627 60.4114 31.8513C60.9283 31.6147 60.9634 31.6142 61.1151 31.8383ZM36.0615 31.9382C35.961 32.2208 35.9571 32.2768 36.0442 32.1835C36.1168 32.1059 36.2275 31.7042 36.1765 31.7042C36.1588 31.7042 36.1071 31.8094 36.0615 31.9382ZM49.7414 31.9776C49.4148 32.0791 49.1617 32.1757 49.179 32.1927C49.2158 32.2288 50.4385 31.8876 50.5046 31.8227C50.5872 31.7417 50.3413 31.7917 49.7414 31.9776ZM61.4388 32.382C61.668 32.8226 61.8418 32.7367 58.4417 33.8629C57.4056 34.206 56.3702 34.5509 55.3353 34.8974C54.3229 35.2377 52.5252 35.7441 50.0321 36.3915C47.9088 36.9428 47.4829 37.0592 46.7744 37.2819C46.2688 37.4442 45.7683 37.6214 45.2736 37.8132C44.2532 38.2159 44.2014 38.1397 45.202 37.7081C46.0327 37.3498 47.3849 36.9018 48.7441 36.5347C50.416 36.0834 50.9358 35.9344 50.9753 35.895C51.0826 35.7886 48.6056 36.3738 47.4941 36.7174C47.1815 36.8141 46.6361 36.9835 46.2819 37.0939C45.3506 37.3841 43.8593 38.0689 42.9945 38.6035C42.2495 39.064 41.9599 39.1786 42.4349 38.8248C43.7898 37.8157 45.2443 37.2025 49.4569 35.8649C50.7432 35.4565 51.2672 35.2576 50.7139 35.388C47.479 36.1498 43.9902 37.492 42.161 38.6785C41.8257 38.8962 41.6139 39.0062 41.6905 38.923C41.9388 38.6539 43.5844 37.7064 45.0463 36.9909C46.7288 36.1673 50.0034 35.1478 52.8731 34.5543C53.769 34.3689 54.8797 34.1396 55.3415 34.0449C56.5301 33.8009 58.3495 33.2397 59.5024 32.7613C60.3018 32.4296 61.1705 32.0926 61.2623 32.0785C61.2718 32.077 61.3513 32.2136 61.4388 32.382ZM36.9253 32.7447C36.8606 32.8675 36.8247 32.9678 36.8456 32.9678C36.8664 32.9678 36.9364 32.8675 37.001 32.7447C37.0656 32.6222 37.1015 32.5219 37.0807 32.5219C37.0598 32.5219 36.9899 32.6222 36.9253 32.7447ZM60.5631 32.5961C60.4675 32.6365 60.4535 32.6601 60.5251 32.6601C60.5877 32.6601 60.707 32.6313 60.7902 32.5961C60.8858 32.556 60.8998 32.5322 60.8282 32.5322C60.7656 32.5322 60.6463 32.5609 60.5631 32.5961ZM36.3212 33.0384C36.2033 33.2622 36.1635 33.4799 36.2574 33.3876C36.3187 33.3276 36.5031 32.8191 36.4637 32.8191C36.4488 32.8191 36.3846 32.9179 36.3212 33.0384ZM13.3194 33.5625C13.664 34.0494 13.9969 34.5442 14.3177 35.0466C14.4595 35.27 14.8671 35.8889 15.2236 36.4219C15.5801 36.9547 16.173 37.859 16.5411 38.4315C17.8817 40.5156 18.5171 41.4576 18.6057 41.493C18.6556 41.513 19.3544 41.187 20.1589 40.7687C27.1869 37.1136 29.357 36.1894 31.8493 35.7897C33.6957 35.4936 35.5537 35.7087 36.2333 36.2973C36.3544 36.4019 37.6451 38.2756 37.6451 38.3464C37.6451 38.3584 37.4118 38.2914 37.1265 38.1976C33.9284 37.145 30.7152 38.1612 23.0988 42.6335C22.374 43.0556 21.6414 43.4648 20.9015 43.8609C20.2974 44.1812 19.508 44.621 19.1476 44.8383C18.7871 45.0554 18.4587 45.2332 18.4182 45.2332C18.3774 45.2332 18.3018 45.2834 18.25 45.3447C18.1113 45.5087 18.0871 45.4924 17.7762 45.0271C17.6199 44.793 16.9001 43.7317 16.1769 42.6687C15.4534 41.6057 14.5277 40.1672 14.1196 39.4722C13.6415 38.6599 13.1584 37.8503 12.6704 37.0436C12.0312 35.9909 11.0071 33.9539 11.0808 33.8816C11.1186 33.8445 11.9433 34.902 12.5093 35.7136C12.7498 36.0586 12.9466 36.3182 12.9466 36.2906C12.9466 36.2628 12.6557 35.6668 12.3002 34.9657C11.5552 33.4972 11.5397 33.3916 12.1931 34.2451C12.9195 35.1935 12.9585 35.1667 12.4278 34.0829L12.1278 33.4696C12.0265 33.2618 12.2829 33.4905 12.564 33.8589C12.7496 34.102 12.9113 34.2909 12.9236 34.2789C12.9672 34.2361 12.4796 33.4138 12.4106 33.4138C12.372 33.4138 12.3405 33.3803 12.3405 33.3394C12.3405 33.1623 12.557 33.2909 12.7789 33.5998C12.9111 33.7836 13.0776 33.9341 13.1489 33.9341C13.2661 33.9341 13.2649 33.9244 13.1383 33.8334C13.0521 33.7718 13.0163 33.6852 13.0455 33.6104C13.0803 33.5217 13.0512 33.4882 12.9397 33.4882C12.8553 33.4882 12.8049 33.4586 12.8275 33.4222C12.8504 33.386 12.8198 33.3162 12.7595 33.2671C12.6734 33.1969 12.6695 33.1565 12.7414 33.0781C12.851 32.9588 12.9552 33.0462 13.3194 33.5625ZM61.649 33.2338C60.4807 33.8346 53.2261 36.1534 49.3502 37.165C46.0732 38.0204 43.7563 38.7183 43.2607 38.9989C43.1201 39.0785 42.9871 39.1261 42.965 39.1046C42.8899 39.0309 44.0718 38.5523 45.2724 38.1702C47.4301 37.4832 47.5946 37.4345 48.8578 37.1045C51.9544 36.2957 52.5518 36.122 56.2446 34.9566C58.0691 34.3807 59.7444 33.803 61.1296 33.2717C61.6744 33.0627 62.0326 33.0367 61.649 33.2338ZM57.9114 33.7181C57.328 33.9185 56.3734 34.2043 55.79 34.3533C54.7969 34.6068 54.3813 34.7442 54.5915 34.7495C54.9086 34.7575 58.6864 33.6365 59.0596 33.4237C59.3497 33.2582 58.9566 33.359 57.9114 33.7181ZM35.9443 33.6783C35.8745 33.783 35.8317 33.9252 35.8493 33.9944C35.8722 34.0841 35.9081 34.051 35.975 33.8784C36.0266 33.7455 36.0995 33.6369 36.1371 33.6369C36.1748 33.6369 36.2056 33.6034 36.2056 33.5625C36.2056 33.4268 36.0731 33.4856 35.9443 33.6783ZM11.9173 36.2386C12.94 37.959 13.2907 38.5603 13.6291 39.1748C13.8093 39.5019 14.1681 40.104 14.4265 40.513C14.6848 40.9217 14.9178 41.3733 14.9441 41.5164C14.9893 41.7621 15.4459 42.69 16.3518 44.3783C16.7188 45.0621 17.782 46.7944 17.8348 46.7944C17.8474 46.7944 18.1079 46.6547 18.4135 46.484C18.7194 46.3133 19.3276 46.0086 19.7652 45.8067C20.2027 45.6048 21.0136 45.1841 21.5672 44.8718C24.6735 43.1193 24.6097 43.1351 23.407 44.4156C23.0019 44.8476 22.6005 45.283 22.2029 45.7217C21.9056 46.0517 21.5679 46.3693 21.4523 46.4279C21.1207 46.5959 19.5662 47.4789 18.8181 47.9244C17.8608 48.4947 17.3538 48.7659 17.3218 48.725C17.1629 48.5216 15.8786 46.5942 15.713 46.311C15.5935 46.1067 15.2605 45.5883 14.9732 45.159C14.6858 44.7296 14.313 44.094 14.1449 43.7466C13.9769 43.3991 13.3844 42.2114 12.8285 41.1077C12.2727 40.0037 11.6776 38.7828 11.506 38.3944C11.3345 38.006 10.9579 37.2678 10.6689 36.7542C10.3801 36.2405 10.1314 35.722 10.1163 35.6019C10.1012 35.482 10.0193 35.2666 9.93458 35.1235C9.53543 34.451 9.69699 34.3042 10.1186 34.9562C10.2707 35.1914 10.7474 35.9087 11.1782 36.5504C11.6088 37.192 12.2717 38.2958 12.6512 39.0035C13.3803 40.3628 14.0101 41.5088 15.033 43.3376C15.5281 44.2274 16.019 45.1195 16.5056 46.0138C16.9727 46.8724 17.3891 47.6155 17.4308 47.6652C17.4725 47.7151 17.493 47.7954 17.4765 47.8441C17.3689 48.1609 15.4065 44.802 12.664 39.6066C11.7628 37.8992 11.3068 37.2189 11.6668 38.1188C12.0987 39.1986 12.2789 39.6227 12.3353 39.6926C12.3694 39.7348 12.7315 40.4218 13.1398 41.2192C14.0461 42.9893 14.7913 44.353 15.0686 44.7502C15.1829 44.9137 15.4726 45.382 15.7124 45.7908C16.315 46.8182 17.0002 47.8488 17.2062 48.038L17.3786 48.1961L17.7196 47.9672C17.9071 47.8412 18.7409 47.3379 19.5726 46.8486C21.3579 45.7984 22.4694 45.0707 22.9665 44.6261C23.4093 44.2303 23.4413 44.0904 23.0129 44.4234C22.8406 44.5572 22.3719 44.8383 21.9712 45.0478C21.5705 45.2575 20.7652 45.7232 20.1818 46.0831C17.3928 47.8026 17.7921 47.6534 17.5326 47.073C17.4182 46.8176 17.0933 46.1904 16.8105 45.6792C15.5737 43.4444 13.9267 40.4593 13.5907 39.8439C13.39 39.4758 13.1336 39.041 13.0211 38.8775C11.7119 36.9753 10.2977 34.3935 10.4893 34.2559C10.6427 34.1459 10.8174 34.3884 11.9173 36.2386ZM9.30055 35.1292C9.34536 35.2548 9.41363 35.3385 9.45242 35.3149C9.49121 35.2915 9.61669 35.431 9.73132 35.6253C9.84575 35.8196 10.0312 36.0955 10.1429 36.2386C10.4606 36.6447 11.173 37.9238 11.5768 38.8128C11.7787 39.2572 12.3227 40.3725 12.7857 41.2911C13.2486 42.2097 13.6813 43.1463 13.7473 43.3724C13.8906 43.8638 14.3258 44.6663 14.9176 45.5306C15.3821 46.209 16.0749 47.5168 16.0178 47.6074C15.9569 47.7042 17.1241 49.4506 17.3354 49.5787C17.3761 49.6032 17.7944 49.4253 18.2652 49.183C18.7361 48.941 19.2576 48.7018 19.4242 48.6517C19.8243 48.5316 21.5002 47.7493 21.9871 47.4555C22.1985 47.3278 22.9017 46.9386 23.5495 46.5908C24.2028 46.2401 24.8532 45.8843 25.5007 45.5234C26.3413 45.0503 29.747 43.3296 30.0632 43.2181L30.2583 43.1494L30.0688 43.2971C29.9646 43.3783 29.6809 43.5494 29.4385 43.6771C29.1958 43.805 29.0166 43.9283 29.0403 43.9515C29.0637 43.9745 28.6826 44.225 28.1933 44.5078C27.3066 45.0206 26.5934 45.5533 27.3415 45.1443C27.5288 45.0417 27.9891 44.7959 28.3642 44.5981C28.7393 44.4002 29.2589 44.1115 29.5191 43.9563C30.9583 43.0982 34.4529 41.5781 34.9352 41.6002C35.0297 41.6045 35.2773 41.5532 35.4858 41.4862C35.6941 41.4192 36.1544 41.3457 36.5085 41.3229L37.1525 41.2818L36.9729 41.4249C36.8739 41.5035 36.6183 41.6279 36.4046 41.7014C35.3369 42.0683 34.4228 42.4603 33.5958 42.9056C31.7521 43.8982 30.0544 44.848 29.4897 45.2025C29.2753 45.3371 28.6446 45.6709 28.0882 45.9441C27.5315 46.2174 26.6159 46.6998 26.0534 47.0165C24.9683 47.627 24.0142 48.151 23.9025 48.1977C23.8655 48.2133 23.8614 48.1843 23.8934 48.1335C24.0779 47.8407 28.1747 45.4758 30.7885 44.1532C31.4137 43.8369 31.959 43.5532 32.0007 43.5226C32.0424 43.4919 32.7583 43.1252 33.5917 42.7081C34.4251 42.2908 35.1218 41.9349 35.14 41.9172C35.2333 41.8268 33.7624 42.4687 32.2381 43.1835C30.6956 43.9068 31.2606 43.502 32.9856 42.6478C33.2178 42.5314 33.4453 42.4062 33.6676 42.2725C33.8342 42.1692 34.1854 42.0108 34.448 41.9204C35.0006 41.7305 35.1486 41.6232 34.7661 41.69C33.8188 41.8553 27.7561 45.1955 25.3715 46.8659C24.9757 47.1432 24.0722 47.6797 23.3639 48.0582C22.6554 48.4367 22.0418 48.7705 22.0001 48.8002C21.9225 48.8555 21.4861 49.0906 20.0381 49.8575C19.584 50.098 19.0726 50.3736 18.9017 50.47C18.3342 50.7901 16.9354 51.4762 16.9071 51.4484C16.8429 51.3854 17.5082 50.95 18.25 50.5696C19.1197 50.1233 20.0274 49.5541 19.9657 49.4936C19.9442 49.4727 19.8121 49.541 19.6721 49.6458C19.38 49.8645 17.1684 50.9606 17.1179 50.9117C17.0512 50.8466 17.3187 50.664 18.0605 50.2683C18.4771 50.046 19.2103 49.6145 19.6893 49.309C20.1686 49.0038 20.7908 48.61 21.072 48.4344C21.6127 48.0966 21.7815 47.9284 21.2993 48.2081C21.143 48.2987 20.4186 48.6976 19.6893 49.0944C17.1567 50.4729 17.2649 50.4263 17.2649 50.1406C17.2649 50.0693 17.4618 49.9039 17.7368 49.7442C18.2452 49.4491 18.2739 49.4061 17.8449 49.5819C17.416 49.7577 17.1905 49.725 16.9482 49.4517C16.4961 48.9416 15.6817 47.8462 15.4399 47.4228C15.3008 47.1794 14.9333 46.5955 14.623 46.1253C14.2919 45.6235 13.7694 44.6541 13.3582 43.778C12.9726 42.9572 12.2955 41.5762 11.8533 40.7092C11.4111 39.8422 10.9142 38.8003 10.7494 38.3938C10.5843 37.9875 10.1417 37.0524 9.76604 36.3157C9.39016 35.5791 9.08275 34.9594 9.08275 34.9385C9.08275 34.8072 9.23287 34.9385 9.30055 35.1292ZM9.69621 36.9671C10.1658 37.8952 10.916 39.3736 11.363 40.2528C11.8099 41.1318 12.3353 42.219 12.5302 42.6687C13.3101 44.4676 13.6309 45.1131 14.2484 46.1253C14.5603 46.6363 15.0582 47.5396 15.3547 48.1324C15.6513 48.7252 16.0846 49.5071 16.3175 49.8702C16.5502 50.2331 16.731 50.5591 16.7188 50.5947C16.6845 50.6954 15.595 48.9419 15.0376 47.8882C14.2539 46.4075 13.924 45.8064 13.7841 45.605C13.5456 45.2615 12.8846 43.8621 12.7599 43.4367C12.692 43.2051 12.5888 42.9768 12.5306 42.9294C12.4722 42.8818 12.3663 42.67 12.2952 42.4586C12.1637 42.0673 11.6295 40.9615 10.9245 39.6208C9.82383 37.5275 8.61882 35.0978 8.72355 35.183C8.78891 35.2361 9.22647 36.039 9.69621 36.9671ZM8.6836 35.7739C8.90625 36.1119 10.0453 38.2806 10.4503 39.1377C10.5566 39.3626 10.9536 40.1487 11.3328 40.8846C11.7118 41.6205 12.044 42.3064 12.0708 42.4085C12.1235 42.6086 11.5333 41.4919 10.3033 39.0635C9.87872 38.2252 9.46328 37.4223 9.38027 37.2794C9.13686 36.8605 8.39713 35.4209 8.42545 35.4209C8.43961 35.4209 8.55578 35.5798 8.6836 35.7739ZM13.5527 35.5206C13.5527 35.7224 14.6138 37.5599 16.0493 39.8439C16.3062 40.2522 16.5623 40.661 16.8175 41.0704L16.9783 41.3307L16.7618 41.1044C16.5898 40.9217 16.4214 40.7358 16.2566 40.5468C16.0037 40.2566 15.9851 40.2462 16.1051 40.4624C16.1806 40.598 16.475 40.9826 16.7595 41.3172C17.0442 41.6517 17.531 42.3003 17.8416 42.7587C18.1521 43.2169 18.4393 43.612 18.4797 43.6366C18.52 43.6609 18.553 43.7176 18.553 43.7623C18.553 43.9159 18.2277 43.5599 17.486 42.5943C16.7537 41.6407 16.0723 40.9029 16.2775 41.2856C16.3299 41.3834 16.4992 41.6009 16.6536 41.7688C16.8082 41.9366 17.1961 42.4253 17.5159 42.8544C18.1371 43.6883 18.2603 43.8348 18.5673 44.1047L18.7632 44.2771L19.2995 44.0122C20.1195 43.6071 21.7741 42.6626 22.4927 42.1897C22.8468 41.9566 23.3781 41.6279 23.6733 41.4593C24.4491 41.0159 24.5088 40.8812 23.7951 41.1845C23.4621 41.3263 23.1471 41.4422 23.0951 41.4422C22.8645 41.4422 20.2332 42.6675 19.3924 43.1667C19.1247 43.3254 18.8674 43.4409 18.8204 43.4232C18.6519 43.3597 17.0047 40.9096 15.1815 38.0107C14.1598 36.3861 13.5527 35.4578 13.5527 35.5206ZM7.21093 36.1085C7.3145 36.2822 7.79957 37.1938 8.2891 38.1342C8.77863 39.0745 9.34051 40.1282 9.53737 40.4757C9.7557 40.8624 9.96727 41.2528 10.172 41.6466C10.324 41.9429 10.4633 42.1855 10.4815 42.1855C10.5273 42.1855 10.3661 41.8542 9.52282 40.2136C8.80559 38.8182 8.53367 38.2457 8.58779 38.2457C8.60311 38.2457 9.10001 39.174 9.69195 40.3084C10.2841 41.443 10.8896 42.5861 11.038 42.8487C11.1861 43.1111 11.268 43.302 11.2197 43.2729C11.1714 43.2436 11.0089 43.0036 10.8584 42.7397C10.7081 42.4757 10.57 42.2597 10.5515 42.2597C10.506 42.2597 10.7096 42.639 11.0469 43.1821C11.3671 43.6976 11.557 44.0564 12.8111 46.5156C13.3062 47.4865 13.7261 48.281 13.744 48.281C13.7915 48.281 13.6699 48.0228 12.9294 46.5527C12.5638 45.8269 12.2663 45.2081 12.268 45.1774C12.2699 45.1468 12.3415 45.2556 12.4274 45.4191C13.0843 46.6722 15.5413 51.2782 15.8474 51.8305C16.0568 52.2088 16.2742 52.5182 16.3305 52.5182C16.5692 52.5182 30.7401 45.5167 34.2046 43.687C35.3318 43.0915 35.751 42.9147 35.751 43.0343C35.751 43.0514 35.7717 43.1184 35.7971 43.1833C35.8318 43.2721 35.7337 43.3505 35.4001 43.5003C35.1565 43.6097 34.2409 44.0653 33.3654 44.5127C30.2133 46.1219 27.0562 47.7216 23.8942 49.3119C20.7557 50.8877 16.5 52.8899 16.289 52.8899C15.9827 52.8899 15.7799 52.7869 15.6633 52.5723C15.5789 52.4168 15.582 52.4134 15.7151 52.5182C15.8613 52.6332 15.7003 52.327 15.3574 51.8373C15.2812 51.7285 14.2263 49.8051 13.0132 47.563C11.8889 45.4844 10.7623 43.407 9.63357 41.3307C6.38528 35.3663 6.62365 35.8695 7.01097 35.7949C7.01756 35.7935 7.10736 35.9347 7.21093 36.1085ZM9.889 36.2013C10.0678 36.4651 10.7515 37.9898 10.9055 38.4688C10.9648 38.6526 11.5027 39.7733 12.1008 40.9588C12.699 42.1446 13.2558 43.2818 13.3382 43.4864C13.6664 44.2998 14.704 46.103 15.1668 46.6642C15.4086 46.9575 15.4249 46.7653 15.192 46.3668C14.4672 45.1272 13.8301 43.9351 13.7424 43.6544C13.6582 43.3859 12.9536 41.9515 10.5145 37.0853C10.3072 36.6718 10.0477 36.2537 9.93768 36.1561L9.73772 35.9785L9.889 36.2013ZM8.45629 37.993C8.42079 38.0278 7.66962 36.6093 7.60601 36.3873C7.57653 36.2851 7.76136 36.5991 8.0168 37.0851C8.27203 37.5711 8.46986 37.9797 8.45629 37.993ZM41.13 36.8704C40.9459 37.0545 40.8125 37.205 40.8333 37.205C40.8542 37.205 41.0218 37.0545 41.2058 36.8704C41.3899 36.6864 41.5233 36.5359 41.5026 36.5359C41.4816 36.5359 41.3141 36.6864 41.13 36.8704ZM36.5919 38.4202C36.9692 38.5382 37.7207 38.8939 37.7207 38.9546C37.7207 38.9752 37.5854 38.9243 37.4201 38.8416C35.9523 38.1068 33.0869 38.2775 30.7263 39.2404C29.3904 39.7853 28.9887 40.007 25.8075 41.9541C23.6302 43.2868 22.6694 43.8447 21.0679 44.7064C20.2471 45.1479 19.2376 45.7015 18.8243 45.9363L18.0729 46.3636L17.9335 46.1887C17.7562 45.9664 17.2048 45.0918 16.6986 44.2297C16.4824 43.8617 16.0613 43.1791 15.7626 42.7127C15.3027 41.995 15.0898 41.5876 15.2634 41.7577C15.3219 41.8152 16.1796 43.1488 17.0442 44.527C17.429 45.1403 17.8103 45.715 17.8916 45.8043L18.0394 45.9666L18.7696 45.4979C19.3711 45.112 21.1261 44.0954 22.341 43.4291C22.798 43.1785 24.6849 42.0443 25.7125 41.4026C26.6908 40.7916 27.3368 40.4671 29.0081 39.7474C31.141 38.829 32.3927 38.4406 33.7054 38.2899C34.2785 38.224 36.2486 38.3131 36.5919 38.4202ZM55.4849 39.4288C54.6596 40.2142 54.3922 40.2774 53.1004 39.9908C52.9315 39.9535 52.8673 40.0136 52.5064 40.5474C52.0977 41.1516 51.4121 41.8822 50.377 42.8164L49.813 43.3254L50.0585 43.7405C50.9647 45.272 51.0395 45.8254 50.4918 46.943L50.1458 47.6492L50.5434 47.2346C50.7622 47.0064 51.3002 46.5171 51.7391 46.147C53.0725 45.0223 53.4771 44.4086 53.4785 43.5087C53.4814 41.6456 54.6131 40.3267 56.1309 40.4176C56.5863 40.4448 56.9094 40.5617 57.8934 41.0546C57.9527 41.0843 57.617 40.5124 57.277 40.0045C57.0698 39.6951 56.5813 39.249 56.232 39.0503L56.0132 38.9259L55.4849 39.4288ZM42.8726 39.1729C42.8726 39.218 42.4452 39.4361 42.3649 39.4319C42.3317 39.4302 42.4237 39.3647 42.5695 39.2863C42.8682 39.1259 42.8726 39.1244 42.8726 39.1729ZM56.5184 39.7759C56.9845 40.1114 56.9876 40.1938 56.5287 40.0547C56.3307 39.9946 56.021 39.9607 55.8402 39.9792L55.5116 40.0129L55.7605 39.7611C56.0677 39.4501 56.0663 39.4501 56.5184 39.7759ZM34.8109 39.7213C34.789 39.7563 34.5545 39.8047 34.2899 39.8288C33.8258 39.8715 32.2922 40.3035 32.3621 40.372C32.3811 40.3904 32.4949 40.3687 32.6152 40.3236C34.1259 39.7581 37.4934 39.7348 37.4934 40.2899C37.4934 40.3132 37.4339 40.3031 37.361 40.2671C36.8028 39.9931 34.6363 39.9611 33.7566 40.214C33.1897 40.3769 33.23 40.4218 33.8196 40.2844C34.3235 40.1668 36.5175 40.0635 36.2056 40.172C36.1014 40.2083 35.8798 40.2427 35.7132 40.2486C35.5464 40.2544 35.2054 40.3071 34.9554 40.3655C34.7054 40.4239 34.6202 40.4555 34.7661 40.4359C35.4278 40.3465 36.4187 40.3172 36.66 40.3796C36.8761 40.4355 36.7915 40.449 36.2056 40.4521C34.217 40.4623 29.6716 42.1612 24.966 44.6528C23.9902 45.1696 23.7033 45.2632 24.1733 44.9118C24.8723 44.389 30.606 41.5908 30.978 41.5908C31.1078 41.5908 32.8025 40.9775 32.7674 40.9431C32.7151 40.8917 30.2742 41.7189 29.6537 41.9983C29.3613 42.1301 28.9513 42.3142 28.743 42.407C27.7984 42.8287 26.1483 43.6305 25.966 43.7564C25.8554 43.8328 25.722 43.8952 25.6696 43.8952C25.587 43.8952 25.0053 44.2057 24.0891 44.739C23.9464 44.8219 23.8562 44.8476 23.8888 44.7961C23.9543 44.6918 24.5573 44.3036 25.754 43.5955C26.1896 43.3378 26.6652 43.0362 26.811 42.9254C28.4425 41.6862 32.5244 39.9303 34.2269 39.735C34.5025 39.7034 34.7558 39.6732 34.7894 39.6679C34.8231 39.6625 34.8328 39.6865 34.8109 39.7213ZM40.624 39.8121C41.1277 39.9493 41.4785 40.343 41.9397 41.2886C43.8313 45.1662 43.8953 45.2589 45.1048 45.8745C45.8048 46.2307 47.2668 47.0894 47.2668 47.1442C47.2668 47.1678 46.8996 47.1643 46.4508 47.1366C45.9425 47.105 45.489 47.1166 45.2476 47.1674L44.8599 47.249L44.0746 46.8271C42.534 45.9997 42.2547 45.7835 41.9297 45.1668C41.783 44.8884 40.7607 42.4824 40.4882 41.7739C40.3755 41.4874 40.2499 41.2059 40.1118 40.9303C39.8666 40.4557 39.9223 40.3411 40.2241 40.6993C40.4324 40.9465 40.9489 42.0647 41.6841 43.8605C42.3692 45.5333 42.5466 45.7392 43.9072 46.438L44.7332 46.8623L45.5722 46.8469L46.4113 46.8315L46.1004 46.658C45.9293 46.5624 45.4855 46.3362 45.1139 46.1552C43.6993 45.4653 43.3214 44.9519 41.7241 41.5495C40.7797 39.5381 39.2221 39.5556 37.762 41.5941C37.3829 42.1235 36.5791 42.7998 36.4637 42.6866C36.4389 42.6624 36.6187 42.431 36.8629 42.1724C37.1073 41.9138 37.3895 41.5851 37.4901 41.4422C38.4384 40.0935 39.5448 39.5181 40.624 39.8121ZM42.8189 40.2062C42.9045 40.458 42.8377 40.5366 42.6411 40.4161C42.5197 40.3417 42.4578 40.3468 42.3073 40.4435C41.9269 40.688 41.8759 40.5196 42.2462 40.2414C42.6612 39.9293 42.7235 39.9255 42.8189 40.2062ZM31.9629 40.4757C31.8619 40.5398 31.8619 40.5478 31.9629 40.5478C32.0254 40.5478 32.1276 40.5154 32.1902 40.4757C32.2911 40.4117 32.2911 40.4037 32.1902 40.4037C32.1276 40.4037 32.0254 40.4361 31.9629 40.4757ZM54.0004 40.5493L54.332 40.5501L54.0235 40.8783C53.4245 41.516 53.1982 42.1065 53.1022 43.2828C53.0248 44.2326 52.808 44.6354 51.9773 45.3727C51.3039 45.9704 51.2822 45.9793 51.2822 45.6617C51.2822 45.2429 51.0791 44.702 50.679 44.056L50.3002 43.444L50.8479 42.9465C51.6332 42.2339 51.987 41.8635 52.5942 41.1189C53.1196 40.4747 53.1361 40.462 53.3997 40.5048C53.5477 40.5288 53.8179 40.5487 54.0004 40.5493ZM33.0993 40.8102C32.9534 40.8654 32.8852 40.9105 32.9478 40.9105C33.0103 40.9105 33.1807 40.8654 33.3266 40.8102C33.4724 40.7552 33.5405 40.7101 33.4781 40.7101C33.4156 40.7101 33.2451 40.7552 33.0993 40.8102ZM37.1336 40.9257C37.6129 41.0563 37.4519 41.1362 36.712 41.1347C34.4059 41.1301 30.8956 42.3397 26.2049 44.7553C23.4159 46.1917 22.3501 46.7556 21.5076 47.2414C20.7458 47.6806 20.1348 47.9838 20.0109 47.9838C19.8379 47.9838 22.2939 46.4857 23.5369 45.833C24.0668 45.5548 24.7049 45.2181 24.9549 45.0846C25.3577 44.8713 25.7618 44.6603 26.1671 44.4516C26.7042 44.1734 27.2394 43.8919 27.7728 43.6071C31.2352 41.753 35.5908 40.5054 37.1336 40.9257ZM40.9752 41.3613C41.1579 41.713 41.5202 42.6451 41.4869 42.6778C41.4663 42.698 41.2468 42.2249 40.8532 41.312C40.7084 40.9754 40.7921 41.0095 40.9752 41.3613ZM30.5234 41.2563C30.3776 41.3115 30.3093 41.3564 30.3719 41.3564C30.4344 41.3564 30.6049 41.3115 30.7507 41.2563C30.8966 41.2011 30.9647 41.156 30.9022 41.156C30.8398 41.156 30.6693 41.2011 30.5234 41.2563ZM35.6507 41.6243C35.2874 41.7514 35.1835 41.8441 35.4858 41.771C35.8943 41.6727 36.2527 41.5271 36.0919 41.525C36.0085 41.5238 35.8099 41.5686 35.6507 41.6243ZM28.7808 41.9996C28.5934 42.0982 28.4739 42.1787 28.5156 42.1787C28.5573 42.1787 28.7449 42.0982 28.9324 41.9996C29.1198 41.901 29.2393 41.8205 29.1976 41.8205C29.1559 41.8205 28.9683 41.901 28.7808 41.9996ZM40.1028 41.8812C40.1263 41.9181 39.881 42.0561 39.558 42.1874C39.2351 42.3189 38.5105 42.6179 37.948 42.8521C36.2494 43.5593 36.237 43.561 36.0215 43.1155C35.846 42.7522 35.929 42.6898 36.1342 43.031C36.2232 43.1793 36.3047 43.3005 36.315 43.3005C36.3417 43.3005 38.8796 42.2818 39.4634 42.0365C40.0383 41.7952 40.0474 41.7929 40.1028 41.8812ZM27.4739 42.599C27.1927 42.7406 26.9625 42.8733 26.9625 42.8936C26.9625 42.914 27.2012 42.8127 27.4929 42.6687C27.7846 42.5244 28.0232 42.3903 28.0232 42.3703C28.0232 42.3204 28.0445 42.3117 27.4739 42.599ZM21.0336 42.5267C20.9201 42.6381 19.0437 43.7325 19.015 43.7041C18.97 43.6602 18.9327 43.6841 20.0247 43.0508C20.9269 42.5275 21.1519 42.4106 21.0336 42.5267ZM17.0107 42.7452C17.0417 42.8257 17.2964 43.1802 17.5762 43.5327C17.8561 43.8853 18.1304 44.2449 18.1858 44.3319C18.2857 44.4889 18.4015 44.5426 18.4015 44.4318C18.4015 44.3856 17.1532 42.7943 16.9954 42.6394C16.9727 42.6171 16.9795 42.6647 17.0107 42.7452ZM33.3202 43.5532C33.0539 43.8036 29.121 45.8147 29.0444 45.7396C29.0195 45.7152 29.3504 45.5238 29.7802 45.3146C30.2098 45.1053 31.1578 44.6191 31.8871 44.2339C33.0287 43.631 33.4505 43.4307 33.3202 43.5532ZM28.8149 45.8958C28.6374 46.0631 25.5561 47.6993 24.0457 48.4283C18.089 51.3032 18.5157 51.1015 18.7425 50.9368C18.8257 50.8765 19.8228 50.357 20.958 49.7825C22.0932 49.2082 23.183 48.6316 23.3798 48.5012C23.5765 48.371 23.8069 48.2565 23.8917 48.247C24.0666 48.227 25.5614 47.4682 26.47 46.9381C27.4885 46.344 29.0989 45.628 28.8149 45.8958ZM31.4645 46.8266C31.6452 47.772 32.9783 49.7968 33.8836 50.5011C35.2824 51.5892 36.346 51.6206 38.4791 50.6364C38.9579 50.4154 39.4775 50.1897 39.6337 50.1349C40.0103 50.0029 39.9933 49.9165 39.5906 49.9165C38.2182 49.9165 36.8117 48.5022 36.8117 47.1223C36.8117 46.8207 36.7582 46.8121 36.0019 46.9902C34.9381 47.241 33.3898 47.1463 32.0915 46.7512C31.3593 46.5284 31.4063 46.5226 31.4645 46.8266ZM32.6895 47.3181C33.6916 47.5727 35.3724 47.5866 36.2104 47.3472C36.2989 47.3219 36.3635 47.4222 36.4645 47.7415C36.7661 48.6932 37.5687 49.7064 38.2589 50.0061C38.5656 50.1393 38.5444 50.1638 37.9671 50.3443C36.6338 50.7606 35.8367 50.7363 34.8208 50.2478C34.5198 50.1031 34.3417 50.0402 34.4251 50.1077C34.9162 50.5062 36.1125 50.8647 36.6534 50.7757C36.8914 50.7367 36.9063 50.7425 36.7737 50.823C36.0316 51.2735 34.3863 50.609 33.4247 49.4704C32.7928 48.7223 31.8743 47.1661 32.0644 47.1661C32.0785 47.1661 32.3597 47.2346 32.6895 47.3181ZM25.4117 48.8723C25.3118 49.0308 22.3104 50.5857 22.1052 50.5852C21.9345 50.5848 22.4417 50.2978 23.97 49.5305C25.5453 48.7395 25.4751 48.7716 25.4117 48.8723ZM25.3364 51.7704C25.183 52.0181 25.0259 52.2208 24.9873 52.2208C24.9487 52.2208 24.9171 52.2676 24.9171 52.3249C24.9171 52.4516 24.156 53.1451 23.8282 53.3169C23.6005 53.4364 19.6845 53.595 19.6915 53.4846C19.6928 53.464 19.8926 53.3358 20.1352 53.1995C20.7648 52.8459 21.4054 52.3352 21.6438 51.9966C21.7807 51.8019 21.8862 51.7207 21.9622 51.751C22.5815 51.9989 23.848 51.902 24.8791 51.5281C25.703 51.2293 25.6793 51.2166 25.3364 51.7704Z" fill="currentColor"/>
</svg>
