<svg width="118" height="31" fill="currentColor" xmlns="http://www.w3.org/2000/svg"><path d="M37.472 23.835c-.534.014-.971-.082-1.313-.287a2.028 2.028 0 0 1-.82-.902c-.205-.383-.335-.855-.39-1.416a9.924 9.924 0 0 1 0-1.804 9.03 9.03 0 0 1 .37-1.58 8.63 8.63 0 0 1 .697-1.537c.3-.561.71-1.108 1.23-1.641.11.027.198.062.267.103a.483.483 0 0 1 .164.102.535.535 0 0 1 .082.144c.027.15-.014.32-.123.512a10.422 10.422 0 0 0-1.005 2.4c-.15.56-.246 1.08-.287 1.558-.028.41-.02.78.02 1.108.028.341.076.629.144.861.068.246.143.43.225.554.082.136.158.205.226.205s.137-.048.205-.144c.082-.095.157-.212.226-.348.082-.137.177-.349.287-.636a17.782 17.782 0 0 0 .697-2.153c.123-.438.232-.875.328-1.313.192-.875.397-1.86.615-2.953.22-1.107.54-2.263.964-3.466.137-.506.308-1.06.513-1.661.164-.52.37-1.121.615-1.805.26-.697.554-1.449.882-2.256 0-.068.055-.13.164-.184.123-.068.26-.137.41-.205.164-.069.349-.137.554-.205.273-.096.485-.15.636-.164.164-.014.287.007.369.061.082.055.136.13.164.226a.91.91 0 0 1 .04.287c.028.451.042.875.042 1.271.014.397.027.745.04 1.046.015.356.021.677.021.964.014.383-.006.896-.061 1.538-.055.63-.116 1.292-.185 1.99-.054.697-.109 1.38-.164 2.05a13.54 13.54 0 0 0-.02 1.64c0 .233.007.452.02.657l.082.574c.178-.492.376-1.005.595-1.538a44.89 44.89 0 0 1 .656-1.558c.219-.506.424-.971.615-1.395.192-.437.342-.8.452-1.087.164-.383.383-.868.656-1.456l.82-1.763c.287-.588.547-1.128.78-1.62.246-.493.423-.835.533-1.026.082-.137.218-.26.41-.37.205-.109.417-.204.636-.286a3.36 3.36 0 0 1 .635-.164c.206-.041.342-.048.41-.02.178.04.301.095.37.163.082.069.13.116.143.144.028.054.048.15.062.287.014.123.007.321-.02.595-.028.328-.11.827-.247 1.497-.123.67-.28 1.435-.471 2.297-.178.847-.377 1.756-.595 2.727-.205.97-.404 1.928-.595 2.871-.191.93-.362 1.805-.513 2.625-.136.82-.225 1.511-.266 2.071-.028.63.013 1.183.123 1.662.04.205.102.403.184.594.082.192.192.356.328.493.137.15.301.26.493.328.191.068.417.088.676.061a4.116 4.116 0 0 1-1.004.513c-.329.11-.65.164-.964.164a1.905 1.905 0 0 1-.903-.164 1.666 1.666 0 0 1-.656-.492 1.905 1.905 0 0 1-.39-.76c-.082-.286-.109-.608-.082-.963.028-.328.117-.868.267-1.62.15-.752.328-1.6.533-2.543.219-.957.451-1.948.698-2.974.26-1.039.498-2.01.717-2.912.233-.916.43-1.702.595-2.358.164-.656.267-1.087.308-1.292.027-.164.047-.315.061-.451.027-.15.055-.28.082-.39-.137.273-.307.602-.512.984l-.616 1.23c-.218.438-.444.896-.676 1.375-.22.465-.431.916-.636 1.353-.342.711-.677 1.443-1.005 2.195a47.582 47.582 0 0 0-.882 2.112c-.26.67-.478 1.271-.656 1.805-.164.533-.26.943-.287 1.23v.574c.013.11.034.212.061.308l-.82.636a7.994 7.994 0 0 1-.328.102.772.772 0 0 1-.246.041c-.315 0-.554-.164-.718-.492-.164-.3-.315-.889-.451-1.764-.137-.875-.178-1.948-.123-3.22a46.19 46.19 0 0 1 .123-1.906c.068-.643.13-1.258.184-1.846a209 209 0 0 0 .185-1.64c.055-.52.082-.965.082-1.334.014-.273.007-.52-.02-.738a26.013 26.013 0 0 0-.083-.636c-.123.315-.26.745-.41 1.292-.15.533-.307 1.128-.471 1.784a472.65 472.65 0 0 0-.513 2.072c-.164.724-.328 1.421-.492 2.091a147.657 147.657 0 0 1-.76 3.22 37.586 37.586 0 0 0-.41 1.866 15.926 15.926 0 0 1-.512 1.97c-.205.628-.472 1.154-.8 1.578-.328.438-.752.663-1.271.677ZM56.493 7.921c-.04.15-.123.3-.246.451-.11.137-.24.253-.39.349-.136.082-.28.136-.43.164-.15.027-.274 0-.37-.082-.287-.219-.437-.451-.45-.698-.014-.26.047-.499.184-.717.137-.233.308-.424.513-.575.205-.164.382-.26.533-.287.15-.027.273.007.369.103.11.082.191.198.246.349.055.136.082.293.082.471.014.178 0 .335-.04.472Zm-2.83 4.368c.068-.082.198-.15.39-.205.191-.055.39-.096.594-.123.206-.041.39-.062.554-.062.178-.013.28-.013.308 0 .013.014-.02.158-.103.431-.082.274-.184.595-.307.964-.123.37-.253.752-.39 1.148-.137.383-.24.698-.308.944s-.15.526-.246.84c-.096.301-.184.602-.266.903-.069.287-.117.56-.144.82-.027.26-.007.458.062.595.068.164.143.28.225.349.082.054.171.082.267.082.273 0 .615-.15 1.025-.452.424-.3.848-.656 1.272-1.066.437-.424.84-.848 1.21-1.271.369-.438.642-.787.82-1.046a.808.808 0 0 1 .328-.267c.123-.041.219-.034.287.02.082.055.123.144.123.267.014.123-.027.267-.123.43-.219.384-.54.842-.964 1.375a23.35 23.35 0 0 1-1.353 1.517c-.479.479-.95.89-1.415 1.23-.452.343-.82.52-1.108.534a1.57 1.57 0 0 1-.697-.123 2.297 2.297 0 0 1-.615-.349 2.503 2.503 0 0 1-.451-.553 1.555 1.555 0 0 1-.206-.677c-.04-.342-.04-.807 0-1.395.042-.601.117-1.21.226-1.825.11-.629.246-1.223.41-1.784.178-.56.376-.977.595-1.25Zm9.752 8.224c-.315 0-.588-.062-.82-.185a1.427 1.427 0 0 1-.534-.451 1.55 1.55 0 0 1-.266-.656 2.1 2.1 0 0 1 .04-.82 9.8 9.8 0 0 1 .206-.76c.096-.327.191-.676.287-1.045.11-.383.205-.76.287-1.128.096-.383.157-.725.185-1.026.027-.314.013-.567-.041-.758-.055-.205-.171-.308-.349-.308-.219 0-.444.075-.677.226a3.663 3.663 0 0 0-.717.574 9.95 9.95 0 0 0-.718.861c-.233.315-.465.643-.698.984-.123.465-.225.875-.307 1.231l-.226.943c-.054.274-.11.52-.164.739-.054.205-.102.403-.143.594-.041.137-.164.274-.37.41a3.604 3.604 0 0 1-.656.308c-.232.082-.43.123-.595.123-.177 0-.252-.061-.225-.184.014-.082.061-.267.143-.554.069-.287.158-.622.267-1.005.096-.396.198-.814.308-1.251.11-.438.212-.855.307-1.251a337.52 337.52 0 0 0 .472-2.194c.11-.438.232-.916.37-1.436a1.13 1.13 0 0 1 .286-.184c.11-.055.219-.096.328-.123.11-.041.226-.069.349-.082.11 0 .219.006.328.02.096.014.191.041.287.082.11.027.205.075.287.144a4.36 4.36 0 0 0-.143.41c-.055.164-.11.341-.164.533a7.484 7.484 0 0 1-.205.677c.177-.246.376-.492.594-.739.233-.26.479-.492.739-.697.273-.205.56-.369.861-.492.3-.137.608-.205.923-.205.26 0 .492.075.697.226.205.15.362.362.472.635.123.26.191.574.205.944.027.369-.02.772-.144 1.21l-.225.902c-.069.287-.157.629-.267 1.025a19.66 19.66 0 0 1-.369 1.272c-.082.3-.116.56-.103.78.028.218.164.327.41.327.247 0 .554-.15.923-.451.383-.3.766-.663 1.149-1.087.383-.424.745-.854 1.087-1.292.342-.451.601-.813.78-1.087.122-.178.238-.294.348-.348.11-.055.191-.062.246-.021.068.041.102.137.102.287 0 .137-.054.315-.164.533a8.185 8.185 0 0 1-.45.76c-.192.314-.425.649-.698 1.004a27.96 27.96 0 0 1-.882 1.087c-.314.355-.643.683-.984.984-.342.287-.684.52-1.026.698-.328.191-.642.287-.943.287Zm9.71-4.43c-.068.424-.136.827-.204 1.21-.055.383-.09.69-.103.923-.013.342.048.588.185.738.136.15.287.226.45.226.192 0 .425-.096.698-.287.287-.192.588-.431.903-.718.314-.287.628-.602.943-.944.314-.341.601-.663.861-.963.274-.315.5-.588.677-.82.191-.233.321-.383.39-.452a.466.466 0 0 1 .246-.144c.095-.013.17 0 .225.042.055.04.082.116.082.225 0 .11-.054.246-.164.41a16.9 16.9 0 0 1-.635.923c-.26.342-.547.697-.862 1.067-.314.369-.65.731-1.005 1.087-.341.355-.69.67-1.046.943a5.714 5.714 0 0 1-1.005.656c-.314.178-.601.267-.86.267-.192 0-.377-.055-.555-.164a1.91 1.91 0 0 1-.45-.431 2.288 2.288 0 0 1-.329-.595 1.807 1.807 0 0 1-.082-.656c.014-.096.034-.26.062-.492-.575.642-1.156 1.155-1.743 1.538-.575.369-1.129.554-1.662.554a1.596 1.596 0 0 1-1.21-.615 2.809 2.809 0 0 1-.41-.862c-.11-.355-.15-.786-.123-1.292a7.29 7.29 0 0 1 .472-2.256 7.024 7.024 0 0 1 1.025-1.846c.424-.533.896-.95 1.415-1.25.533-.315 1.067-.472 1.6-.472.232 0 .444.061.636.184.191.11.355.26.492.452.136.177.246.376.328.594.096.219.164.424.205.616.096-.397.185-.787.267-1.17.082-.382.164-.744.246-1.086.136-.506.28-1.053.43-1.641l.472-1.743c.178-.656.376-1.347.595-2.071a1.818 1.818 0 0 1 .738-.37c.123-.04.24-.061.349-.061.136 0 .26.02.369.061.11.028.198.117.267.267.081.137.136.349.163.636.028.287.028.677 0 1.169a9.232 9.232 0 0 1-.328 1.968c-.177.711-.417 1.45-.717 2.215-.301.752-.65 1.511-1.046 2.277-.383.752-.8 1.47-1.251 2.153Zm-1.21.267c.055-.26.103-.52.144-.78.055-.26.117-.526.185-.8l-.082.042a.237.237 0 0 1-.062.04c-.15.069-.253.069-.307 0-.055-.082-.082-.204-.082-.369 0-.082-.007-.225-.02-.43a2.773 2.773 0 0 0-.124-.657 1.58 1.58 0 0 0-.266-.594.589.589 0 0 0-.513-.267c-.315 0-.636.164-.964.492a5.909 5.909 0 0 0-.923 1.17 7.59 7.59 0 0 0-.718 1.455c-.191.52-.3.985-.328 1.395-.027.656.055 1.128.246 1.415.192.287.451.43.78.43.246 0 .512-.095.8-.287.3-.19.587-.423.86-.697.288-.273.548-.553.78-.84.246-.288.444-.527.595-.718Zm4.503 6.295c-.123-.081-.185-.17-.185-.266a.442.442 0 0 1 .062-.287c.054-.11.136-.219.246-.328.11-.096.239-.342.39-.739.15-.382.307-.847.471-1.394.178-.56.349-1.17.513-1.825.177-.657.341-1.3.492-1.928a55.483 55.483 0 0 0 .636-3.015l.225-1.25c.069-.397.144-.855.226-1.375a38.16 38.16 0 0 0 .225-1.763l1.641-.739c.233-.109.397-.082.492.082.096.15.096.472 0 .964-.04.246-.116.65-.225 1.21a79.75 79.75 0 0 1-.39 1.825 80.845 80.845 0 0 1-.451 2.03c-.15.684-.301 1.293-.451 1.826l-.472 1.743a668.039 668.039 0 0 1-1.313 4.594c.192.328.547.492 1.067.492.574 0 1.237-.219 1.99-.656.765-.438 1.503-1.094 2.214-1.969.71-.875 1.333-1.969 1.866-3.281.547-1.326.889-2.871 1.026-4.635.068-.957.02-1.798-.144-2.523-.164-.724-.417-1.333-.759-1.825a3.174 3.174 0 0 0-1.23-1.107 3.446 3.446 0 0 0-1.6-.37c-1.38 0-2.81.575-4.286 1.723l-.103-1.702a3.644 3.644 0 0 1 1.21-.902 8.176 8.176 0 0 1 1.292-.492 6.205 6.205 0 0 1 1.415-.205c.876 0 1.716.17 2.523.512.82.328 1.524.834 2.112 1.518.602.683 1.06 1.545 1.374 2.584.315 1.025.424 2.228.328 3.61-.054.792-.218 1.62-.492 2.48-.26.848-.608 1.682-1.046 2.503-.424.82-.93 1.6-1.517 2.337-.588.739-1.23 1.381-1.928 1.928a8.643 8.643 0 0 1-2.235 1.313 6.377 6.377 0 0 1-2.461.492 4.017 4.017 0 0 1-.841-.144 4.685 4.685 0 0 1-.882-.348 5.246 5.246 0 0 1-1.025-.698Zm23.307-6.726c-.191.273-.437.615-.738 1.025-.3.397-.615.8-.943 1.21-.315.397-.63.766-.944 1.108-.3.328-.553.56-.759.697-.136.082-.293.15-.471.205a2.477 2.477 0 0 1-.554.103c-.178.013-.349 0-.513-.041a1.088 1.088 0 0 1-.43-.165 1.08 1.08 0 0 1-.308-.41 4.188 4.188 0 0 1-.205-.594 3.715 3.715 0 0 1-.062-.923c-.328.547-.69.97-1.087 1.271a5.04 5.04 0 0 1-1.127.636c-.41.15-.82.24-1.23.267-.192 0-.397-.069-.616-.206-.219-.122-.403-.32-.554-.594-.15-.287-.246-.65-.287-1.087-.04-.451.014-.985.164-1.6a7.768 7.768 0 0 1 .902-2.276 9.107 9.107 0 0 1 1.375-1.743c.492-.492.977-.862 1.456-1.108.478-.246.875-.355 1.189-.328.37.069.67.178.902.328.192.137.315.342.37.616.068.26-.041.608-.329 1.045.192-.04.349-.068.472-.082.137-.013.24-.02.308-.02.082 0 .136.007.164.02a.51.51 0 0 1 .02.185c0 .082-.02.24-.061.472-.041.232-.103.547-.185.943-.082.397-.191.91-.328 1.538-.027.123-.055.24-.082.349a3.077 3.077 0 0 1-.061.307 6.519 6.519 0 0 1-.062.349l-.103.513c-.013.123-.02.26-.02.41.014.137.04.267.082.39a.772.772 0 0 0 .184.307.658.658 0 0 0 .39.103c.137 0 .315-.082.533-.246.22-.178.451-.397.698-.657.246-.273.499-.567.758-.881.274-.329.527-.643.76-.944.232-.3.437-.567.614-.8.192-.232.328-.403.41-.512.11-.123.22-.192.329-.205.11-.028.191 0 .246.082.054.082.061.205.02.369-.027.164-.123.355-.287.574Zm-6.009.902c.069-.273.15-.594.247-.964.095-.369.177-.724.246-1.066.068-.342.116-.622.143-.84.041-.233.034-.343-.02-.329a1.872 1.872 0 0 0-.226.062 1.105 1.105 0 0 1-.266.061c-.11.014-.22.034-.329.062.11-.22.171-.397.185-.534.027-.15.034-.266.02-.348a.488.488 0 0 0-.082-.226c-.15-.123-.417-.02-.8.308-.369.314-.8.902-1.291 1.764-.206.355-.37.738-.493 1.148a7.838 7.838 0 0 0-.266 1.128c-.041.355-.048.67-.02.943.027.26.081.43.163.513.15.15.322.226.513.226.191-.014.383-.069.574-.165.205-.109.404-.246.595-.41.205-.164.383-.335.533-.512.164-.178.294-.342.39-.493.11-.15.17-.26.184-.328Zm8.727-8.9c-.041.15-.123.3-.246.451-.11.137-.239.253-.39.349-.137.082-.28.136-.431.164-.15.027-.273 0-.369-.082-.287-.219-.437-.451-.451-.698a1.2 1.2 0 0 1 .185-.717c.136-.233.307-.424.512-.575.206-.164.383-.26.534-.287a.392.392 0 0 1 .369.103.74.74 0 0 1 .246.349c.055.136.082.293.082.471.014.178 0 .335-.041.472Zm-2.83 4.368c.068-.082.198-.15.389-.205.192-.055.39-.096.595-.123.205-.041.39-.062.554-.062.178-.013.28-.013.308 0 .013.014-.021.158-.103.431a34.19 34.19 0 0 1-.308.964c-.123.37-.253.752-.389 1.148-.137.383-.24.698-.308.944s-.15.526-.246.84c-.096.301-.185.602-.267.903-.068.287-.116.56-.143.82-.027.26-.007.458.061.595.069.164.144.28.226.349a.472.472 0 0 0 .267.082c.273 0 .615-.15 1.025-.452.424-.3.848-.656 1.271-1.066.438-.424.841-.848 1.21-1.271.37-.438.643-.787.821-1.046a.801.801 0 0 1 .328-.267c.123-.041.219-.034.287.02.082.055.123.144.123.267.014.123-.027.267-.123.43-.219.384-.54.842-.964 1.375-.424.52-.875 1.025-1.353 1.517-.479.479-.951.89-1.415 1.23-.452.343-.821.52-1.108.534a1.57 1.57 0 0 1-.697-.123 2.297 2.297 0 0 1-.615-.349 2.503 2.503 0 0 1-.452-.553 1.555 1.555 0 0 1-.205-.677c-.04-.342-.04-.807 0-1.395.041-.601.117-1.21.226-1.825.11-.629.246-1.223.41-1.784.178-.56.376-.977.595-1.25Zm3.353 7.383c.602-2.53 1.08-4.56 1.436-6.09.369-1.532.649-2.701.841-3.508.218-.957.369-1.62.451-1.989.041-.26.075-.513.102-.759a5.33 5.33 0 0 0 .041-.677c0-.232-.02-.444-.061-.635.109-.069.225-.123.348-.164.137-.041.267-.076.39-.103.15-.04.301-.075.451-.102.151-.028.287-.041.41-.041.11 0 .212.013.308.04.096.014.157.055.185.124.082.068.116.205.102.41 0 .205-.014.417-.041.635-.055.26-.116.54-.184.841-.164.588-.39 1.436-.677 2.543l-1.005 3.856c-.41 1.627-.93 3.677-1.559 6.152a.555.555 0 0 1-.246.144.965.965 0 0 1-.266.04 2.48 2.48 0 0 1-.308-.02 1.294 1.294 0 0 1-.287-.123 1.23 1.23 0 0 1-.246-.226.769.769 0 0 1-.185-.348Zm9.875-7.219c.178-.137.349-.24.513-.307.178-.083.335-.137.472-.165.15-.04.3-.054.451-.04.369.027.594.143.676.348.096.205.11.533.041.984a6.011 6.011 0 0 1-.246.882c-.123.356-.266.793-.43 1.313a60.755 60.755 0 0 0-.533 1.743 33.94 33.94 0 0 0-.513 2.215c-.164.67-.342 1.442-.533 2.317l-.595 2.769c-.219 1.08-.458 2.317-.718 3.712-.068.341-.219.54-.451.594-.219.055-.451.028-.697-.082a1.837 1.837 0 0 1-.267-.184 4.564 4.564 0 0 1-.225-.246.934.934 0 0 1-.206-.349c.315-1.148.588-2.194.821-3.138.246-.943.465-1.763.656-2.46.205-.807.396-1.532.574-2.174.069-.287.13-.568.185-.841.068-.287.136-.568.205-.841-.178.287-.369.56-.574.82-.205.26-.431.486-.677.677a2.673 2.673 0 0 1-.8.43c-.273.11-.56.144-.861.103-.739-.096-1.265-.369-1.579-.82-.301-.451-.431-1.04-.39-1.764.014-.287.055-.601.123-.943.068-.342.144-.67.226-.985.082-.314.157-.594.225-.84.082-.26.144-.445.185-.554.164-.52.28-.964.348-1.333.082-.37.028-.677-.164-.923.192-.123.369-.205.534-.246.177-.055.335-.096.471-.123a2.48 2.48 0 0 1 .451 0c.37.055.581.191.636.41.069.219.048.547-.061.984-.055.233-.144.534-.267.903-.123.355-.253.724-.39 1.107a63.4 63.4 0 0 0-.369 1.067c-.109.314-.171.54-.184.676-.123.616-.13 1.094-.021 1.436.11.328.349.492.718.492.178 0 .376-.075.595-.225a4.09 4.09 0 0 0 .656-.636 7.93 7.93 0 0 0 .677-.882c.218-.342.417-.684.594-1.025.192-.342.356-.677.493-1.005.15-.328.259-.622.328-.882.095-.506.157-.902.184-1.19.028-.287-.068-.546-.287-.779ZM26.878 19.009c-.063-.238-.137-.475-.205-.71-.402-1.4-.804-2.799-1.208-4.198l-1.321-4.593-.348-1.206c-.239-.83-.885-1.358-1.656-1.703-1.255-.561-2.848-.783-4.21-.816a12.504 12.504 0 0 0-4.316.667c-.267.092-.706-.152-.98-.226a12.838 12.838 0 0 0-3.176-.441c-1.409-.022-2.848.248-4.194.653a5.325 5.325 0 0 0-.019.007c-.84.318-1.76.837-2.024 1.757l-.2.691-1.005 3.494-1.375 4.778c-.267.926-.795 2.117-.598 3.091.242 1.207 1.423 1.762 2.563 1.53.4-.082.77-.267 1.152-.405.64-.229 1.294-.422 1.96-.56 1.603-.333 3.231-.157 4.807.25.351.09 1.67.318 1.708.712.036.366.458.267.723.267h.792c.242 0 .646.084.876-.017.23-.1.053-.352.269-.446.296-.128.601-.234.909-.33.718-.222 1.455-.39 2.2-.498 1.59-.232 3.095-.065 4.624.418.895.282 1.763.803 2.734.63 1.324-.236 1.866-1.588 1.518-2.796Zm-14.093-8.27-.155 8.389c-.004.187-.055.303-.264.298-1.132-.673-2.477-1.062-3.776-1.226-1.527-.193-3.023.015-4.487.47-.453.14-.962.448-1.443.448-.552 0-.872-.49-.743-1.003l1.009-3.972 1.186-4.67.294-1.164c.242-.949 1.584-1.13 2.385-1.295a10.37 10.37 0 0 1 4.505.042c.258.061 1.553.26 1.546.63l-.057 3.053Zm11.222 8.329c-1.233-.512-2.591-.872-3.926-.94-1.517-.08-3.07.232-4.468.814-.158.066-1.213.825-1.255.286l-.07-3.778-.144-7.804c-.003-.15.356-.225.431-.253a9.45 9.45 0 0 1 1.826-.477c1.513-.246 3.002-.12 4.481.256.729.185 1.519.426 1.723 1.232l.346 1.361 2.091 8.24c.174.688-.282 1.297-1.035 1.063Z" fill="currentColor"/></svg>